<?xml version="1.0" encoding="UTF-8"?>
<svg id="Vrstva_2" data-name="Vrstva 2" xmlns="http://www.w3.org/2000/svg" viewBox="0 0 812 812">
  <defs>
    <style>
      * {
        fill: #f2f2f2;
      }
    </style>
  </defs>
  <g id="Vrstva_1-2" data-name="Vrstva 1">
    <g>
      <path class="cls-1" d="M307.58,65.42c9.55.48,17.42-7.49,17.42-17.05v-14.97s0-.96,0-.96v-14.97c0-9.56-7.87-17.53-17.42-17.05-8.9.45-15.58,7.43-15.58,16.48v32.04c0,9.04,6.69,16.03,15.58,16.48Z"/>
      <path class="cls-1" d="M373.71,66h15.29v15.37c0,9.56,7.87,17.54,17.42,17.05,8.89-.46,15.58-7.53,15.58-16.68v-15.73h65v15.37c0,9.56,7.87,17.54,17.42,17.05,8.89-.46,15.58-7.53,15.58-16.68v-15.73h15.43c9.56,0,17.54-7.87,17.05-17.42-.46-8.89-7.54-15.58-16.71-15.58h-80.76v-16.29c0-9.23-7.48-16.71-16.71-16.71h-64.59c-9.23,0-16.71,7.48-16.71,16.71v32.59c0,9.23,7.48,16.71,16.71,16.71Z"/>
      <path class="cls-1" d="M469.58,163.02c9.55.48,17.42-7.49,17.42-17.05v-14.97s0-.96,0-.96v-15.33c0-9.23-7.48-16.71-16.71-16.71h-31.26c-9.56,0-17.53,7.87-17.05,17.42.45,8.9,7.43,15.58,16.48,15.58h15.54v15.54c0,9.04,6.69,16.03,15.58,16.48Z"/>
      <path class="cls-1" d="M454,227.96v32.04h-15.29c-9.23,0-16.71,7.48-16.71,16.71v63.3c0,9.56,7.87,17.53,17.42,17.05,8.9-.45,15.58-7.44,15.58-16.48v-47.58h15.29c9.23,0,16.71-7.48,16.71-16.71v-63.3c0-9.56-7.87-17.53-17.42-17.05-8.9.45-15.58,7.44-15.58,16.48v15.54Z"/>
      <path class="cls-1" d="M552,195v-81.42c0-6.77-4.34-12.89-10.83-14.81-11.97-3.55-22.17,4.48-22.17,15.65v47.58h-16.38c-6.77,0-12.89,4.34-14.81,10.83-3.55,11.97,4.48,22.17,15.65,22.17h15.54v16.38c0,6.77,4.34,12.89,10.83,14.81,11.97,3.55,22.17-4.48,22.17-15.65v-15.54Z"/>
      <path class="cls-1" d="M271.85,258.58c11.52,2.81,21.15-5.08,21.15-15.93v-46.66h15.29c9.23,0,16.71-7.48,16.71-16.71v-48.29h16.06c7.24,0,13.74-4.82,15.45-11.85,2.81-11.52-5.08-21.15-15.93-21.15h-47.58v-16.02c0-7.24-4.82-13.74-11.85-15.45-11.52-2.81-21.15,5.08-21.15,15.93v160.67c0,7.24,4.82,13.74,11.85,15.45Z"/>
      <path class="cls-1" d="M212.25,293c7.65,0,14.4-5.3,15.89-12.81,2.19-11.09-5.67-20.19-16.37-20.19H80.92c-8.79,0-15.92,7.13-15.92,15.92v65.37c0,9.23,7.48,16.71,16.71,16.71h31.26c9.56,0,17.53-7.87,17.05-17.42-.45-8.9-7.44-15.58-16.48-15.58h-15.54v-32h64v48.29c0,9.23,7.48,16.71,16.71,16.71h48.29v15.37c0,9.56,7.87,17.54,17.42,17.05,8.89-.46,15.58-7.53,15.58-16.68v-15.73h17.23c8.71,0,15.77-7.06,15.77-15.77v-34.46c0-8.71-7.06-15.77-15.77-15.77h-33.52c-9.23,0-16.71,7.48-16.71,16.71v15.29h-31v-31h16.25Z"/>
      <path class="cls-1" d="M600.98,293h16.02s0,16.02,0,16.02c0,7.24,4.82,13.74,11.85,15.45,11.52,2.81,21.15-5.08,21.15-15.93v-15.54h80.09c7.24,0,13.74-4.82,15.45-11.85,2.81-11.52-5.08-21.15-15.93-21.15h-128.16c-10.85,0-18.74,9.63-15.93,21.15,1.71,7.03,8.21,11.85,15.45,11.85Z"/>
      <path class="cls-1" d="M15.58,324.95c9.55.48,17.42-7.49,17.42-17.05v-14.97s0-.96,0-.96v-14.97c0-9.56-7.87-17.53-17.42-17.05C6.69,260.41,0,267.39,0,276.44v32.04C0,317.52,6.69,324.5,15.58,324.95Z"/>
      <circle class="cls-1" cx="535.76" cy="308.68" r="16.71" transform="translate(-42.53 89.81) rotate(-9.22)"/>
      <circle class="cls-1" cx="503.32" cy="341.12" r="16.71" transform="translate(-48.14 85.03) rotate(-9.22)"/>
      <circle class="cls-1" cx="697.97" cy="341.12" r="16.71" transform="translate(115.72 855.42) rotate(-67.5)"/>
      <path class="cls-1" d="M796,325h-17v-15.37c0-9.56-7.87-17.54-17.42-17.05-8.89.46-15.58,7.53-15.58,16.68v32.03c0,9.23,7.48,16.71,16.71,16.71h15.29v31h-47c-9.56,0-17.53,7.87-17.05,17.42.45,8.9,7.44,15.58,16.48,15.58h15.58v49.29c0,9.23,7.48,16.71,16.71,16.71h16.29v15.37c0,9.56,7.87,17.54,17.42,17.05,8.89-.46,15.58-7.53,15.58-16.68v-33.03c0-9.23-7.48-16.71-16.71-16.71h-15.29v-31h16c8.84,0,16-7.16,16-16v-66c0-8.84-7.16-16-16-16Z"/>
      <circle class="cls-1" cx="146.47" cy="373.56" r="16.71" transform="translate(-254.7 365.93) rotate(-67.5)"/>
      <circle class="cls-1" cx="470.88" cy="373.56" r="16.71" transform="translate(-53.76 80.25) rotate(-9.22)"/>
      <circle class="cls-1" cx="211.35" cy="406" r="16.71" transform="translate(-244.62 445.9) rotate(-67.5)"/>
      <path class="cls-1" d="M17.42,552.51c8.89-.46,15.58-7.55,15.58-16.72v-80.79h16.29c9.23,0,16.71-7.48,16.71-16.71v-64.73c0-9.56-7.87-17.54-17.42-17.05-8.89.46-15.58,7.55-15.58,16.72v15.77h-16.29C7.48,389,0,396.48,0,405.71v129.76c0,9.56,7.87,17.54,17.42,17.05Z"/>
      <circle class="cls-1" cx="81.59" cy="535.76" r="16.71"/>
      <circle class="cls-1" cx="146.47" cy="535.76" r="16.71"/>
      <circle class="cls-1" cx="211.35" cy="535.76" r="16.71" transform="translate(-364.51 526) rotate(-67.5)"/>
      <circle class="cls-1" cx="730.41" cy="535.76" r="16.71" transform="translate(-76.39 123.92) rotate(-9.22)"/>
      <path class="cls-1" d="M307.58,584.17c-8.89.46-15.58,7.53-15.58,16.68v15.15h-15.29c-9.23,0-16.71,7.48-16.71,16.71v97.59c0,9.23,7.48,16.71,16.71,16.71h31.26c9.56,0,17.53-7.87,17.05-17.42-.45-8.9-7.44-15.58-16.48-15.58h-15.54v-64h15.29c9.23,0,16.71-7.48,16.71-16.71v-32.07c0-9.56-7.87-17.54-17.42-17.05Z"/>
      <circle class="cls-1" cx="600.65" cy="600.65" r="16.71" transform="translate(-184.14 925.71) rotate(-67.5)"/>
      <path class="cls-1" d="M795.29,584h-64.88c-9.47-.06-16.71,7.18-16.71,16.65s16.71,17.35,16.71,17.35h15.59v31h-16.29c-9.23,0-16.71,7.48-16.71,16.71v15.29h-31v-31h14.97c9.56,0,17.53-7.87,17.05-17.42-.45-8.9-7.44-15.58-16.48-15.58h-15.54v-32h14.97c9.56,0,17.53-7.87,17.05-17.42-.45-8.9-7.44-15.58-16.48-15.58h-15.54v-64h15.29c9.23,0,16.71-7.48,16.71-16.71v-32.07c0-9.56-7.87-17.54-17.42-17.05-8.89.46-15.58,7.53-15.58,16.68v15.15h-31v-32h14.97c9.56,0,17.53-7.87,17.05-17.42-.45-8.9-7.44-15.58-16.48-15.58h-48.54v-16c0-8.84-7.16-16-16-16h-34c-8.84,0-16,7.16-16,16v16h-47c-9.56,0-17.53,7.87-17.05,17.42.45,8.9,7.44,15.58,16.48,15.58h15.58v32h-64v-48.29c0-9.23-7.48-16.71-16.71-16.71h-16.29v-16c0-8.84-7.16-16-16-16h-16v-96h16c8.84,0,16-7.16,16-16v-50h14.97c9.56,0,17.53-7.87,17.05-17.42-.45-8.9-7.44-15.58-16.48-15.58h-14.54v-16.23c0-8.71-7.06-15.77-15.77-15.77h-34.46c-8.71,0-15.77,7.06-15.77,15.77v33.52c0,9.23,7.48,16.71,16.71,16.71h15.29v31h-31v-15.37c0-9.56-7.87-17.54-17.42-17.05-8.89.46-15.58,7.53-15.58,16.68v33.03c0,9.23,7.48,16.71,16.71,16.71h15.29v31h-15.29c-9.23,0-16.71,7.48-16.71,16.71v113.29h-32v-15.37c0-9.56-7.87-17.54-17.42-17.05-8.89.46-15.58,7.53-15.58,16.68v47.73h-64v-15.29c0-9.23-7.48-16.71-16.71-16.71h-48.29v-16.25c0-7.65-5.3-14.41-12.81-15.89-11.09-2.19-20.19,5.67-20.19,16.38v98.02c0,7.65,5.3,14.41,12.81,15.89,11.09,2.19,20.19-5.67,20.19-16.38v-15.77h31v15.37c0,9.56,7.87,17.54,17.42,17.05,8.89-.46,15.58-7.53,15.58-16.68v-15.73h129v31h-47.29c-9.23,0-16.71,7.48-16.71,16.71v32.07c0,9.56,7.87,17.54,17.42,17.05,8.89-.46,15.58-7.53,15.58-16.68v-15.15h80.29c9.23,0,16.71-7.48,16.71-16.71v-48.29h64v15.37c0,9.56,7.87,17.54,17.42,17.05,8.89-.46,15.58-7.53,15.58-16.68v-15.73h32v64h-14.97c-9.56,0-17.53,7.87-17.05,17.42.45,8.9,7.44,15.58,16.48,15.58h15.54v64h-47c-9.56,0-17.53,7.87-17.05,17.42.45,8.9,7.44,15.58,16.48,15.58h47.58v15.29c0,9.23,7.48,16.71,16.71,16.71h16.29v15.37c0,9.56,7.87,17.54,17.42,17.05,8.89-.46,15.58-7.53,15.58-16.68v-15.73h17c8.84,0,16-7.16,16-16v-16h31v16c0,8.84,7.16,16,16,16h16v32h-80.29c-9.23,0-16.71,7.48-16.71,16.71v16.29h-16.76c-6.75,0-12.84,4.32-14.79,10.78-3.63,11.99,4.51,22.22,15.83,22.22h228.51c8.41,0,15.22-6.82,15.22-15.22v-196.13c0-9.47-7.24-16.71-16.71-16.65ZM390.96,454h-32.96v-64h32v16.29c0,9.23,7.48,16.71,16.71,16.71h15.29v31h-31.04ZM568.29,486h-16.29v-31h16.29c9.23,0,16.71-7.48,16.71-16.71v-15.29h31v31h-14.97c-9.56,0-17.53,7.87-17.05,17.42.45,8.9,7.44,15.58,16.48,15.58h15.54v32h-31v-16.29c0-9.23-7.48-16.71-16.71-16.71ZM617.65,649h-64.65v-96h96v96h-31.35ZM778,747v31h-63v-31h15.29c9.23,0,16.71-7.48,16.71-16.71v-15.29h31v32Z"/>
      <path class="cls-1" d="M455,618h15.98c8.41,0,15.75-6.1,16.86-14.44,1.43-10.86-6.36-19.56-16.83-19.56h-16.01v-15.29c0-9.23-7.48-16.71-16.71-16.71h-31.26c-9.56,0-17.53,7.87-17.05,17.42.45,8.9,7.44,15.58,16.48,15.58h15.54v31h-16.29c-9.23,0-16.71,7.48-16.71,16.71v32.07c0,9.56,7.87,17.54,17.42,17.05,8.89-.46,15.58-7.53,15.58-16.68v-15.15h16.29c9.23,0,16.71-7.48,16.71-16.71v-15.29Z"/>
      <circle class="cls-1" cx="341.12" cy="697.97" r="16.71" transform="translate(-107.4 63.65) rotate(-9.22)"/>
      <path class="cls-1" d="M405.54,714h-32.87c-8.65,0-15.67,7.02-15.67,15.67v49.33h-79.04c-9.56,0-17.53,7.87-17.05,17.42.45,8.9,7.44,15.58,16.48,15.58h95.91c9.23,0,16.71-7.48,16.71-16.71v-48.29h16.02c7.24,0,13.74-4.82,15.45-11.85,2.81-11.52-5.08-21.15-15.93-21.15Z"/>
      <circle class="cls-1" cx="470.88" cy="762.85" r="16.71" transform="translate(-414.1 905.96) rotate(-67.5)"/>
      <circle class="cls-1" cx="535.76" cy="762.85" r="16.71" transform="translate(-374.05 965.9) rotate(-67.5)"/>
      <path class="cls-1" d="M72.99,227h82.64c39.25,0,71.37-32.12,71.37-71.37v-82.64C227,32.68,194.32,0,154.01,0h-82.64C32.12,0,0,32.12,0,71.37v82.64C0,194.32,32.68,227,72.99,227ZM78.42,33h71.16c25.08,0,45.42,20.33,45.42,45.42v71.16c0,24.98-20.44,45.42-45.42,45.42h-71.16c-25.08,0-45.42-20.33-45.42-45.42v-71.16c0-24.98,20.44-45.42,45.42-45.42Z"/>
      <path class="cls-1" d="M656.99,227h82.64c39.25,0,71.37-32.12,71.37-71.37v-82.64c0-40.31-32.68-72.99-72.99-72.99h-82.64c-39.25,0-71.37,32.12-71.37,71.37v82.64c0,40.31,32.68,72.99,72.99,72.99ZM661.42,33h71.16c25.08,0,45.42,20.33,45.42,45.42v71.16c0,24.98-20.44,45.42-45.42,45.42h-71.16c-25.08,0-45.42-20.33-45.42-45.42v-71.16c0-24.98,20.44-45.42,45.42-45.42Z"/>
      <path class="cls-1" d="M154.01,584h-82.64C32.12,584,0,616.12,0,655.37v82.64C0,778.32,32.68,811,72.99,811h82.64c39.25,0,71.37-32.12,71.37-71.37v-82.64c0-40.31-32.68-72.99-72.99-72.99ZM149.58,778h-71.16c-25.08,0-45.42-20.33-45.42-45.42v-71.16c0-24.98,20.44-45.42,45.42-45.42h71.16c25.08,0,45.42,20.33,45.42,45.42v71.16c0,24.98-20.44,45.42-45.42,45.42Z"/>
      <path class="cls-1" d="M65,134.43c0,15.23,12.35,27.57,27.57,27.57h41.94c14.55,0,27.48-12.93,27.48-25.87v-43.65c0-16.17-11.32-27.48-25.87-27.48h-43.56c-15.17,0-27.57,12.41-27.57,27.57v41.85Z"/>
      <path class="cls-1" d="M649,134.43c0,15.23,12.35,27.57,27.57,27.57h41.94c14.55,0,27.48-12.93,27.48-25.87v-43.65c0-16.17-11.32-27.48-25.87-27.48h-43.56c-15.17,0-27.57,12.41-27.57,27.57v41.85Z"/>
      <path class="cls-1" d="M136.13,649h-43.56c-15.17,0-27.57,12.41-27.57,27.57v41.85c0,15.23,12.35,27.57,27.57,27.57h41.94c14.55,0,27.48-12.93,27.48-25.87v-43.65c0-16.17-11.32-27.48-25.87-27.48Z"/>
    </g>
  </g>
</svg>