<?xml version="1.0" encoding="UTF-8" standalone="no"?>
<!DOCTYPE svg PUBLIC "-//W3C//DTD SVG 1.1//EN" "http://www.w3.org/Graphics/SVG/1.1/DTD/svg11.dtd">
<svg width="100%" height="100%" viewBox="0 0 1241 720" version="1.1" xmlns="http://www.w3.org/2000/svg" xmlns:xlink="http://www.w3.org/1999/xlink" xml:space="preserve" xmlns:serif="http://www.serif.com/" style="fill-rule:evenodd;clip-rule:evenodd;stroke-linejoin:round;stroke-miterlimit:2;">
    <g transform="matrix(0.20066,0,0,0.20066,-182.205,-64.9354)">
        <g transform="matrix(4.16667,0,0,4.16667,6444.14,2506.1)">
            <path d="M0,-394.705C18.921,-395.145 38.282,-394.127 58.111,-391.652C76.826,-389.316 96.742,-384.677 117.882,-377.735C120.089,-377.007 121.502,-374.852 121.289,-372.537C120.973,-369.262 120.714,-366.411 120.65,-363.958C120.553,-360.208 120.292,-357.083 120.292,-353.48C120.292,-348.502 120.072,-339.041 119.633,-325.098C119.201,-312.193 118.205,-292.741 116.648,-266.765C116.554,-265.205 115.736,-263.779 114.437,-262.911C113.137,-262.043 111.507,-261.834 110.03,-262.345C99.269,-266.073 89.056,-269.643 79.425,-273.038C67.929,-277.108 55.196,-280.243 41.225,-282.498C31.765,-284.313 23.651,-284.753 16.886,-283.873C10.148,-282.966 5.391,-281.371 2.695,-279.143C0,-276.86 -0.577,-274.413 1.018,-271.69C2.574,-269.014 7.159,-267.896 13.372,-265.659C13.454,-265.63 13.536,-265.599 13.617,-265.568C16.196,-264.589 61.494,-247.378 61.494,-247.378C75.024,-242.401 87.4,-236.213 98.676,-228.787C109.924,-221.334 119.853,-212.891 128.405,-203.431C136.958,-193.97 143.614,-183.492 148.344,-171.996C153.074,-160.5 155.439,-148.015 155.439,-134.484C155.88,-115.562 152.744,-98.429 145.979,-83.138C139.241,-67.792 130.001,-54.398 118.285,-42.903C106.542,-31.407 92.488,-22.167 76.042,-15.209C59.568,-8.196 41.912,-3.603 22.964,-1.348C20.269,-0.908 16.226,-0.551 10.808,-0.33C5.391,-0.11 0,-0.001 -5.418,-0.001C-16.666,0.44 -27.502,0.22 -37.843,-0.66C-47.802,-1.532 -56.72,-2.606 -64.599,-3.885C-65.235,-3.988 -65.865,-4.123 -66.488,-4.288C-74.838,-6.501 -84.567,-9.224 -95.651,-12.486C-106.27,-15.618 -120.308,-20.213 -137.7,-26.224C-140.111,-27.058 -141.506,-29.574 -140.935,-32.06C-136.591,-50.992 -119.392,-125.955 -114.727,-146.287C-114.421,-147.623 -113.578,-148.774 -112.397,-149.471C-111.216,-150.167 -109.801,-150.347 -108.483,-149.969C-100.37,-147.626 -92.47,-145.068 -84.815,-142.267C-75.603,-138.884 -66.361,-135.392 -57.121,-131.788C-47.881,-128.186 -38.53,-125.023 -29.069,-122.328C-20.784,-119.968 -12.162,-118.114 -3.185,-116.784C0.641,-116.228 4.546,-116.667 8.152,-118.06C8.84,-118.334 9.506,-118.627 10.148,-118.945C10.584,-119.163 10.995,-119.41 11.384,-119.687C15.355,-122.514 16.498,-127.912 14.014,-132.106C13.52,-132.949 12.899,-133.74 12.155,-134.484C9.9,-136.739 7.205,-138.774 4.043,-140.589C0.907,-142.377 -2.612,-143.944 -6.436,-145.32C-10.258,-146.667 -13.751,-147.767 -16.914,-148.675C-34.487,-152.745 -50.686,-159.373 -65.564,-168.614C-80.442,-177.854 -93.286,-188.552 -104.094,-200.735C-114.902,-212.891 -123.346,-225.955 -129.423,-239.925C-135.528,-253.896 -138.554,-267.867 -138.554,-281.838C-139.021,-305.269 -131.926,-326.886 -117.268,-346.715C-102.637,-366.543 -79.535,-380.294 -47.99,-387.94C-39.878,-390.195 -31.875,-391.9 -24.009,-393.027C-16.116,-394.127 -8.113,-394.705 0,-394.705" style="fill:#ffffff;fill-rule:nonzero;"/>
        </g>
        <g transform="matrix(4.16667,0,0,4.16667,1796.79,1543.83)">
            <path d="M0,68.156L33.232,183.619C33.232,183.619 41.244,213.753 44.081,224.423C44.659,226.599 46.629,228.113 48.88,228.113L166.66,228.113C168.248,228.113 169.74,227.354 170.674,226.071C171.609,224.788 171.874,223.135 171.387,221.624C156.027,173.951 60.912,-121.251 49.55,-156.514C48.889,-158.566 46.979,-159.957 44.823,-159.957L-86.498,-159.957C-88.654,-159.957 -90.564,-158.566 -91.225,-156.514C-102.587,-121.251 -197.702,173.951 -213.062,221.624C-213.549,223.135 -213.284,224.788 -212.349,226.071C-211.415,227.354 -209.923,228.113 -208.335,228.113L-90.521,228.113C-88.286,228.113 -86.326,226.62 -85.732,224.465C-83.07,214.797 -76.035,189.25 -76.035,189.25L-74.344,183.619L-42.243,73.787L-38.863,61.398L-20.275,-9.007L0,68.156Z" style="fill:#ffffff;fill-rule:nonzero;"/>
        </g>
        <g transform="matrix(4.16667,0,0,4.16667,1449.24,323.61)">
            <path d="M0,117.598C-3.603,117.598 -6.545,117.048 -8.8,115.893C-11.056,114.765 -13.971,112.62 -17.573,109.457L-114.242,9.516C-116.937,7.261 -117.157,5.088 -114.902,3.053C-112.647,1.018 -109.044,0 -104.094,0L-18.949,0C-15.865,0 -9.858,3.79 -3.382,8.828L127.423,103.741C130.358,106.133 132.188,107.81 134.125,109.58C135.895,111.198 135.178,113.834 134.519,114.962C133.831,116.09 132.043,116.777 129.101,116.997C126.186,117.217 67.132,117.598 60.807,117.598L0,117.598Z" style="fill:#ffffff;fill-rule:nonzero;"/>
        </g>
        <g transform="matrix(4.16667,0,0,4.16667,4127.76,2494.87)">
            <path d="M-5.049,-387.967C-2.261,-387.967 0,-385.706 0,-382.918L0,-5.049C0,-3.71 -0.532,-2.426 -1.479,-1.479C-2.426,-0.532 -3.71,0 -5.049,0L-122.009,0C-123.348,0 -124.632,-0.532 -125.579,-1.479C-126.526,-2.426 -127.058,-3.71 -127.058,-5.049L-127.058,-180.467C-137.426,-166.936 -148.345,-152.965 -159.84,-138.554C-169.804,-126.063 -179.169,-114.069 -187.934,-102.588C-188.888,-101.337 -190.37,-100.602 -191.943,-100.6C-193.516,-100.598 -195,-101.329 -195.957,-102.578C-210.022,-120.931 -256.151,-181.126 -256.151,-181.126L-256.151,-5.049C-256.151,-3.71 -256.683,-2.426 -257.63,-1.479C-258.577,-0.532 -259.861,0 -261.2,0L-378.16,0C-379.499,0 -380.783,-0.532 -381.73,-1.479C-382.677,-2.426 -383.209,-3.71 -383.209,-5.049L-383.209,-382.918C-383.209,-385.706 -380.948,-387.967 -378.16,-387.967L-261.997,-387.967C-260.442,-387.967 -258.975,-387.251 -258.018,-386.027C-249.626,-375.285 -208.778,-323.004 -195.86,-306.47C-194.914,-305.259 -193.464,-304.55 -191.928,-304.546C-190.391,-304.542 -188.938,-305.245 -187.986,-306.451C-174.95,-322.974 -133.635,-375.342 -125.191,-386.045C-124.234,-387.259 -122.773,-387.967 -121.227,-387.967L-5.049,-387.967Z" style="fill:#ffffff;fill-rule:nonzero;"/>
        </g>
        <g transform="matrix(4.16667,0,0,4.16667,5357.8,1690.9)">
            <path d="M0,-2.034C0,-12.347 -2.008,-22.111 -6.078,-31.296C-10.12,-40.509 -15.759,-48.457 -22.964,-55.195C-30.169,-61.906 -38.64,-67.296 -48.32,-71.339C-58.001,-75.381 -68.259,-77.389 -79.067,-77.389C-89.875,-77.389 -100.134,-75.381 -109.814,-71.339C-119.522,-67.296 -127.855,-61.906 -134.813,-55.195C-141.826,-48.457 -147.437,-40.509 -151.727,-31.296C-156.018,-22.111 -158.135,-12.347 -158.135,-2.034C-158.135,8.279 -156.018,18.042 -151.727,27.228C-147.437,36.441 -141.826,44.389 -134.813,51.127C-127.855,57.837 -119.522,63.227 -109.814,67.27C-100.134,71.313 -89.875,73.32 -79.067,73.32C-68.259,73.32 -58.001,71.313 -48.32,67.27C-38.64,63.227 -30.169,57.837 -22.964,51.127C-15.759,44.389 -10.12,36.441 -6.078,27.228C-2.008,18.042 0,8.279 0,-2.034M-80.415,-201.752C-51.593,-201.752 -24.312,-196.471 1.375,-185.883C27.034,-175.295 49.338,-160.967 68.287,-142.953C87.208,-124.939 102.169,-103.653 113.225,-79.094C124.253,-54.535 129.78,-28.491 129.78,-1.017C129.78,26.925 124.253,53.052 113.225,77.391C102.169,101.702 87.208,122.988 68.287,141.25C49.338,159.484 27.034,173.812 1.375,184.18C-24.312,194.521 -51.593,199.718 -80.415,199.718C-109.704,199.718 -137.096,194.521 -162.535,184.18C-188.002,173.812 -210.195,159.484 -229.116,141.25C-248.038,122.988 -263.026,101.702 -274.055,77.391C-285.11,53.052 -290.61,26.925 -290.61,-1.017C-290.61,-28.491 -285.11,-54.535 -274.055,-79.094C-263.026,-103.653 -248.038,-124.939 -229.116,-142.953C-210.195,-160.967 -188.002,-175.295 -162.535,-185.883C-137.096,-196.471 -109.704,-201.752 -80.415,-201.752" style="fill:#ffffff;fill-rule:nonzero;"/>
        </g>
        <g transform="matrix(1718.1,0,0,1718.1,857.398,3891.16)">
            <path d="M0.27,0.004L0.312,0.004L0.541,-0.51L0.486,-0.51L0.291,-0.055L0.098,-0.51L0.041,-0.51L0.27,0.004Z" style="fill:#ffffff;fill-rule:nonzero;"/>
        </g>
        <g transform="matrix(1718.1,0,0,1718.1,2132.23,3891.16)">
            <rect x="0.1" y="-0.51" width="0.049" height="0.51" style="fill:#ffffff;"/>
        </g>
        <g transform="matrix(1718.1,0,0,1718.1,2834.93,3891.16)">
            <path d="M0.258,0.01C0.356,0.01 0.434,-0.048 0.434,-0.139L0.434,-0.141C0.434,-0.231 0.348,-0.261 0.266,-0.284C0.193,-0.305 0.124,-0.326 0.124,-0.383L0.124,-0.385C0.124,-0.436 0.17,-0.474 0.24,-0.474C0.294,-0.474 0.35,-0.454 0.397,-0.423L0.423,-0.464C0.372,-0.498 0.303,-0.52 0.242,-0.52C0.143,-0.52 0.074,-0.461 0.074,-0.379L0.074,-0.377C0.074,-0.286 0.166,-0.261 0.249,-0.237C0.32,-0.217 0.384,-0.195 0.384,-0.135L0.384,-0.133C0.384,-0.074 0.33,-0.036 0.261,-0.036C0.196,-0.036 0.134,-0.06 0.078,-0.103L0.049,-0.064C0.103,-0.02 0.184,0.01 0.258,0.01Z" style="fill:#ffffff;fill-rule:nonzero;"/>
        </g>
        <g transform="matrix(1718.1,0,0,1718.1,3963.13,3891.16)">
            <rect x="0.1" y="-0.51" width="0.049" height="0.51" style="fill:#ffffff;"/>
        </g>
        <g transform="matrix(1718.1,0,0,1718.1,4666.42,3891.16)">
            <path d="M0.319,0.012C0.471,0.012 0.582,-0.112 0.582,-0.255L0.582,-0.257C0.582,-0.4 0.472,-0.522 0.321,-0.522C0.169,-0.522 0.058,-0.398 0.058,-0.255L0.058,-0.253C0.058,-0.11 0.168,0.012 0.319,0.012ZM0.321,-0.034C0.203,-0.034 0.111,-0.132 0.111,-0.255L0.111,-0.257C0.111,-0.377 0.198,-0.476 0.319,-0.476C0.437,-0.476 0.529,-0.378 0.529,-0.255L0.529,-0.253C0.529,-0.133 0.442,-0.034 0.321,-0.034Z" style="fill:#ffffff;fill-rule:nonzero;"/>
        </g>
        <g transform="matrix(1718.1,0,0,1718.1,6040.89,3891.16)">
            <path d="M0.093,0L0.142,0L0.142,-0.295C0.142,-0.401 0.219,-0.477 0.319,-0.477C0.422,-0.477 0.481,-0.408 0.481,-0.303L0.481,0L0.53,0L0.53,-0.312C0.53,-0.434 0.455,-0.522 0.326,-0.522C0.233,-0.522 0.176,-0.475 0.142,-0.415L0.142,-0.51L0.093,-0.51L0.093,0Z" style="fill:#ffffff;fill-rule:nonzero;"/>
        </g>
        <g transform="matrix(1710.58,0,0,1710.58,2131.28,3891.25)">
            <rect x="0.094" y="-0.71" width="0.061" height="0.067" style="fill:#ffffff;"/>
        </g>
        <g transform="matrix(1710.58,0,0,1710.58,3964.07,3891.25)">
            <rect x="0.094" y="-0.71" width="0.061" height="0.067" style="fill:#ffffff;"/>
        </g>
    </g>
</svg>
