<?xml version="1.0" encoding="UTF-8"?>
<svg id="Vrstva_2" data-name="Vrstva 2" xmlns="http://www.w3.org/2000/svg" viewBox="0 0 213.69 213.69">
  <defs>
    <style>
      .cls-1 {
        opacity: .2;
      }

      .cls-2 {
        fill: #243980;
        stroke-width: 0px;
      }

      .cls-3 {
        fill: none;
        stroke: #b2b2b2;
        stroke-miterlimit: 10;
        stroke-width: .5px;
      }
    </style>
  </defs>
  <g id="Vrstva_1-2" data-name="Vrstva 1">
    <g>
      <g>
        <rect class="cls-3" x=".25" y=".25" width="213.19" height="213.19"/>
        <line class="cls-3" x1=".25" y1="199.23" x2="213.44" y2="199.23"/>
        <line class="cls-3" x1=".25" y1="185.02" x2="213.44" y2="185.02"/>
        <line class="cls-3" x1=".25" y1="170.8" x2="213.44" y2="170.8"/>
        <line class="cls-3" x1=".25" y1="156.59" x2="213.44" y2="156.59"/>
        <line class="cls-3" x1=".25" y1="142.38" x2="213.44" y2="142.38"/>
        <line class="cls-3" x1=".25" y1="128.16" x2="213.44" y2="128.16"/>
        <line class="cls-3" x1=".25" y1="113.95" x2="213.44" y2="113.95"/>
        <line class="cls-3" x1=".25" y1="99.74" x2="213.44" y2="99.74"/>
        <line class="cls-3" x1=".25" y1="85.53" x2="213.44" y2="85.53"/>
        <line class="cls-3" x1=".25" y1="71.31" x2="213.44" y2="71.31"/>
        <line class="cls-3" x1=".25" y1="57.1" x2="213.44" y2="57.1"/>
        <line class="cls-3" x1=".25" y1="42.89" x2="213.44" y2="42.89"/>
        <line class="cls-3" x1=".25" y1="28.68" x2="213.44" y2="28.68"/>
        <line class="cls-3" x1=".25" y1="14.46" x2="213.44" y2="14.46"/>
        <line class="cls-3" x1="199.23" y1=".25" x2="199.23" y2="213.44"/>
        <line class="cls-3" x1="185.02" y1=".25" x2="185.02" y2="213.44"/>
        <line class="cls-3" x1="170.8" y1=".25" x2="170.8" y2="213.44"/>
        <line class="cls-3" x1="156.59" y1=".25" x2="156.59" y2="213.44"/>
        <line class="cls-3" x1="142.38" y1=".25" x2="142.38" y2="213.44"/>
        <line class="cls-3" x1="128.17" y1=".25" x2="128.17" y2="213.44"/>
        <line class="cls-3" x1="113.95" y1=".25" x2="113.95" y2="213.44"/>
        <line class="cls-3" x1="99.74" y1=".25" x2="99.74" y2="213.44"/>
        <line class="cls-3" x1="85.53" y1=".25" x2="85.53" y2="213.44"/>
        <line class="cls-3" x1="71.31" y1=".25" x2="71.31" y2="213.44"/>
        <line class="cls-3" x1="57.1" y1=".25" x2="57.1" y2="213.44"/>
        <line class="cls-3" x1="42.89" y1=".25" x2="42.89" y2="213.44"/>
        <line class="cls-3" x1="28.68" y1=".25" x2="28.68" y2="213.44"/>
        <line class="cls-3" x1="14.46" y1=".25" x2="14.46" y2="213.44"/>
      </g>
      <rect class="cls-3" x=".25" y=".25" width="213.19" height="213.19"/>
    </g>
    <g class="cls-1">
      <path class="cls-2" d="M74.39,97.68h2.87v18.18h-2.87v-18.18ZM77.37,97.68h.98l1.79,18.18h-.98l-1.79-18.18ZM82.02,97.68h.98l-1.79,18.18h-.98l1.79-18.18ZM83.09,97.68h2.9v18.18h-2.9v-18.18Z"/>
      <path class="cls-2" d="M96.84,97.68v13.9c0,.99.9,1.69,1.74,1.69s1.74-.71,1.74-1.69v-13.9h2.9v14c0,2.44-2.24,4.34-4.62,4.34s-4.62-1.9-4.62-4.34v-14h2.88Z"/>
      <path class="cls-2" d="M115.01,97.68v18.18h-2.9v-18.18h2.9ZM116.11,97.68l2.73,18.18h-1l-2.73-18.18h1ZM121.84,97.68v18.18h-2.9v-18.18h2.9Z"/>
      <path class="cls-2" d="M133.91,114.84v-16.16h-2.47v-1.01h7.86v1.01h-2.5v16.16h2.5v1.01h-7.86v-1.01h2.47Z"/>
    </g>
  </g>
</svg>