<?xml version="1.0" encoding="utf-8"?>
<!-- Generator: Adobe Illustrator 26.5.0, SVG Export Plug-In . SVG Version: 6.00 Build 0)  -->
<svg version="1.1" id="Vrstva_1" xmlns="http://www.w3.org/2000/svg" xmlns:xlink="http://www.w3.org/1999/xlink" x="0px" y="0px"
	 viewBox="45 27 786 190" style="enable-background:new 45 27 786.51 220.77;" xml:space="preserve">
<style type="text/css">
	.st0{fill:#FFFFFF;}
</style>
<g>
	<path class="st0" d="M288.3,80.2c6,0,10.8-4.8,10.8-10.8c0-6-4.8-10.8-10.8-10.8c-6,0-10.8,4.8-10.8,10.8
		C277.5,75.4,282.3,80.2,288.3,80.2z M288.3,64.2c2.9,0,5.2,2.3,5.2,5.2c0,2.9-2.3,5.2-5.2,5.2c-2.9,0-5.2-2.3-5.2-5.2
		C283.1,66.5,285.4,64.2,288.3,64.2z"/>
	<path class="st0" d="M311.5,80.5c6,0,10.8-4.8,10.8-10.8c0-6-4.8-10.8-10.8-10.8c-6,0-10.8,4.8-10.8,10.8
		C300.7,75.6,305.5,80.5,311.5,80.5z M311.5,64.4c2.9,0,5.2,2.3,5.2,5.2s-2.3,5.2-5.2,5.2c-2.9,0-5.2-2.3-5.2-5.2
		S308.6,64.4,311.5,64.4z"/>
	<path class="st0" d="M255.5,78.9L255.5,78.9c1.1,1.1,3,1.1,4.1,0l5.2-5.1l5.2,5.1c1.1,1.1,3,1.1,4.1,0l0,0c1.1-1.1,1.1-3,0-4.1
		l-5.1-5.1l5.1-5.1c1.1-1.1,1.1-3,0-4.1l0,0c-1.1-1.1-3-1.1-4.1,0l-5.2,5.1l-5.2-5.1c-1.1-1.1-3-1.1-4.1,0l0,0c-1.1,1.1-1.1,3,0,4.1
		l5.1,5.1l-5.1,5.1C254.4,75.9,254.4,77.7,255.5,78.9z"/>
	<path class="st0" d="M151.7,151.2L151.7,151.2c-1.1-1.1-3-1.1-4.1,0l-5.2,5.1l-5.2-5.1c-1.1-1.1-3-1.1-4.1,0l0,0
		c-1.1,1.1-1.1,3,0,4.1l5.1,5.1l-5.1,5.1c-1.1,1.1-1.1,3,0,4.1l0,0c1.1,1.1,3,1.1,4.1,0l5.2-5.1l5.2,5.1c1.1,1.1,3,1.1,4.1,0l0,0
		c1.1-1.1,1.1-3,0-4.1l-5.1-5.1l5.1-5.1C152.8,154.2,152.8,152.4,151.7,151.2z"/>
	<path class="st0" d="M151.7,107.4L151.7,107.4c-1.1-1.1-3-1.1-4.1,0l-5.2,5.1l-5.2-5.1c-1.1-1.1-3-1.1-4.1,0l0,0
		c-1.1,1.1-1.1,3,0,4.1l5.1,5.1l-5.1,5.1c-1.1,1.1-1.1,3,0,4.1l0,0c1.1,1.1,3,1.1,4.1,0l5.2-5.1l5.2,5.1c1.1,1.1,3,1.1,4.1,0l0,0
		c1.1-1.1,1.1-3,0-4.1l-5.1-5.1l5.1-5.1C152.8,110.4,152.8,108.5,151.7,107.4z"/>
	<path class="st0" d="M151.7,84.1L151.7,84.1c-1.1-1.1-3-1.1-4.1,0l-5.2,5.1l-5.2-5.1c-1.1-1.1-3-1.1-4.1,0l0,0
		c-1.1,1.1-1.1,3,0,4.1l5.1,5.1l-5.1,5.1c-1.1,1.1-1.1,3,0,4.1l0,0c1.1,1.1,3,1.1,4.1,0l5.2-5.1l5.2,5.1c1.1,1.1,3,1.1,4.1,0l0,0
		c1.1-1.1,1.1-3,0-4.1l-5.1-5.1l5.1-5.1C152.8,87.1,152.8,85.2,151.7,84.1z"/>
	<path class="st0" d="M191.4,154.4L191.4,154.4c-1.1-1.1-3-1.1-4.1,0l-5.2,5.1l-5.2-5.1c-1.1-1.1-3-1.1-4.1,0l0,0
		c-1.1,1.1-1.1,3,0,4.1l5.1,5.1l-5.1,5.1c-1.1,1.1-1.1,3,0,4.1l0,0c1.1,1.1,3,1.1,4.1,0l5.2-5.1l5.2,5.1c1.1,1.1,3,1.1,4.1,0l0,0
		c1.1-1.1,1.1-3,0-4.1l-5.1-5.1l5.1-5.1C192.5,157.3,192.5,155.5,191.4,154.4z"/>
	<path class="st0" d="M235.9,131.1L235.9,131.1c-1.1-1.1-3-1.1-4.1,0l-5.2,5.1l-5.2-5.1c-1.1-1.1-3-1.1-4.1,0l0,0
		c-1.1,1.1-1.1,3,0,4.1l5.1,5.1l-5.1,5.1c-1.1,1.1-1.1,3,0,4.1l0,0c1.1,1.1,3,1.1,4.1,0l5.2-5.1l5.2,5.1c1.1,1.1,3,1.1,4.1,0l0,0
		c1.1-1.1,1.1-3,0-4.1l-5.1-5.1l5.1-5.1C237,134.1,237,132.2,235.9,131.1z"/>
	<path class="st0" d="M205.6,47.5L205.6,47.5c1.1,1.1,3,1.1,4.1,0l5.2-5.1l5.2,5.1c1.1,1.1,3,1.1,4.1,0l0,0c1.1-1.1,1.1-3,0-4.1
		l-5.1-5.1l5.1-5.1c1.1-1.1,1.1-3,0-4.1l0,0c-1.1-1.1-3-1.1-4.1,0l-5.2,5.1l-5.2-5.1c-1.1-1.1-3-1.1-4.1,0l0,0c-1.1,1.1-1.1,3,0,4.1
		l5.1,5.1l-5.1,5.1C204.5,44.6,204.5,46.4,205.6,47.5z"/>
	<path class="st0" d="M182.9,47.5L182.9,47.5c1.1,1.1,3,1.1,4.1,0l5.2-5.1l5.2,5.1c1.1,1.1,3,1.1,4.1,0l0,0c1.1-1.1,1.1-3,0-4.1
		l-5.1-5.1l5.1-5.1c1.1-1.1,1.1-3,0-4.1l0,0c-1.1-1.1-3-1.1-4.1,0l-5.2,5.1l-5.2-5.1c-1.1-1.1-3-1.1-4.1,0l0,0c-1.1,1.1-1.1,3,0,4.1
		l5.1,5.1l-5.1,5.1C181.8,44.6,181.8,46.4,182.9,47.5z"/>
	<path class="st0" d="M172.8,78.6L172.8,78.6c1.1,1.1,3,1.1,4.1,0l5.2-5.1l5.2,5.1c1.1,1.1,3,1.1,4.1,0l0,0c1.1-1.1,1.1-3,0-4.1
		l-5.1-5.1l5.1-5.1c1.1-1.1,1.1-3,0-4.1l0,0c-1.1-1.1-3-1.1-4.1,0l-5.2,5.1l-5.2-5.1c-1.1-1.1-3-1.1-4.1,0l0,0c-1.1,1.1-1.1,3,0,4.1
		l5.1,5.1l-5.1,5.1C171.7,75.7,171.7,77.5,172.8,78.6z"/>
	<path class="st0" d="M217.4,60.4L217.4,60.4c-1.1,1.1-1.1,3,0,4.1l5.1,5.1l-5.1,5.1c-1.1,1.1-1.1,3,0,4.1l0,0c1.1,1.1,3,1.1,4.1,0
		l5.2-5.1l5.2,5.1c1.1,1.1,3,1.1,4.1,0l0,0c1.1-1.1,1.1-3,0-4.1l-5.1-5.1l5.1-5.1c1.1-1.1,1.1-3,0-4.1l0,0c-1.1-1.1-3-1.1-4.1,0
		l-5.2,5.1l-5.2-5.1C220.3,59.3,218.5,59.3,217.4,60.4z"/>
	<path class="st0" d="M314.2,197.7c-1.1-1.1-3-1.1-4.1,0l0,0c-1.1,1.1-1.1,3,0,4.1l5.1,5.1l-5.1,5.1c-1.1,1.1-1.1,3,0,4.1l0,0
		c1.1,1.1,3,1.1,4.1,0l5.2-5.1l5.2,5.1c1.1,1.1,3,1.1,4.1,0l0,0c1.1-1.1,1.1-3,0-4.1l-5.1-5.1l5.1-5.1c1.1-1.1,1.1-3,0-4.1l0,0
		c-1.1-1.1-3-1.1-4.1,0l-5.2,5.1L314.2,197.7z"/>
	<path class="st0" d="M301.9,172.8L301.9,172.8c1.1,1.1,3,1.1,4.1,0l5.2-5.1l5.2,5.1c1.1,1.1,3,1.1,4.1,0l0,0c1.1-1.1,1.1-3,0-4.1
		l-5.1-5.1l5.1-5.1c1.1-1.1,1.1-3,0-4.1l0,0c-1.1-1.1-3-1.1-4.1,0l-5.2,5.1l-5.2-5.1c-1.1-1.1-3-1.1-4.1,0l0,0c-1.1,1.1-1.1,3,0,4.1
		l5.1,5.1l-5.1,5.1C300.8,169.8,300.8,171.7,301.9,172.8z"/>
	<path class="st0" d="M297.6,172.8L297.6,172.8c1.1-1.1,1.1-3,0-4.1l-5.1-5.1l5.1-5.1c1.1-1.1,1.1-3,0-4.1l0,0c-1.1-1.1-3-1.1-4.1,0
		l-5.2,5.1l-5.2-5.1c-1.1-1.1-3-1.1-4.1,0l0,0c-1.1,1.1-1.1,3,0,4.1l5.1,5.1l-5.1,5.1c-1.1,1.1-1.1,3,0,4.1l0,0c1.1,1.1,3,1.1,4.1,0
		l5.2-5.1l5.2,5.1C294.6,173.9,296.4,173.9,297.6,172.8z"/>
	<path class="st0" d="M274.1,131.1L274.1,131.1c-1.1-1.1-3-1.1-4.1,0l-5.2,5.1l-5.2-5.1c-1.1-1.1-3-1.1-4.1,0l0,0
		c-1.1,1.1-1.1,3,0,4.1l5.1,5.1l-5.1,5.1c-1.1,1.1-1.1,3,0,4.1l0,0c1.1,1.1,3,1.1,4.1,0l5.2-5.1l5.2,5.1c1.1,1.1,3,1.1,4.1,0l0,0
		c1.1-1.1,1.1-3,0-4.1l-5.1-5.1l5.1-5.1C275.2,134.1,275.2,132.2,274.1,131.1z"/>
	<path class="st0" d="M274.1,107.4L274.1,107.4c-1.1-1.1-3-1.1-4.1,0l-5.2,5.1l-5.2-5.1c-1.1-1.1-3-1.1-4.1,0l0,0
		c-1.1,1.1-1.1,3,0,4.1l5.1,5.1l-5.1,5.1c-1.1,1.1-1.1,3,0,4.1l0,0c1.1,1.1,3,1.1,4.1,0l5.2-5.1l5.2,5.1c1.1,1.1,3,1.1,4.1,0l0,0
		c1.1-1.1,1.1-3,0-4.1l-5.1-5.1l5.1-5.1C275.2,110.4,275.2,108.5,274.1,107.4z"/>
	<path class="st0" d="M320.5,107.4L320.5,107.4c-1.1-1.1-3-1.1-4.1,0l-5.2,5.1l-5.2-5.1c-1.1-1.1-3-1.1-4.1,0l0,0
		c-1.1,1.1-1.1,3,0,4.1l5.1,5.1l-5.1,5.1c-1.1,1.1-1.1,3,0,4.1l0,0c1.1,1.1,3,1.1,4.1,0l5.2-5.1l5.2,5.1c1.1,1.1,3,1.1,4.1,0l0,0
		c1.1-1.1,1.1-3,0-4.1l-5.1-5.1l5.1-5.1C321.6,110.4,321.6,108.5,320.5,107.4z"/>
	<path class="st0" d="M320.8,84.1L320.8,84.1c-1.1-1.1-3-1.1-4.1,0l-5.2,5.1l-5.2-5.1c-1.1-1.1-3-1.1-4.1,0l0,0
		c-1.1,1.1-1.1,3,0,4.1l5.1,5.1l-5.1,5.1c-1.1,1.1-1.1,3,0,4.1l0,0c1.1,1.1,3,1.1,4.1,0l5.2-5.1l5.2,5.1c1.1,1.1,3,1.1,4.1,0l0,0
		c1.1-1.1,1.1-3,0-4.1l-5.1-5.1l5.1-5.1C321.9,87.1,321.9,85.2,320.8,84.1z"/>
	<path class="st0" d="M392.4,102.5L392.4,102.5c1.1,1.1,3,1.1,4.1,0l5.2-5.1l5.2,5.1c1.1,1.1,3,1.1,4.1,0l0,0c1.1-1.1,1.1-3,0-4.1
		l-5.1-5.1l5.1-5.1c1.1-1.1,1.1-3,0-4.1l0,0c-1.1-1.1-3-1.1-4.1,0l-5.2,5.1l-5.2-5.1c-1.1-1.1-3-1.1-4.1,0l0,0c-1.1,1.1-1.1,3,0,4.1
		l5.1,5.1l-5.1,5.1C391.3,99.6,391.3,101.4,392.4,102.5z"/>
	<path class="st0" d="M392.4,78.6L392.4,78.6c1.1,1.1,3,1.1,4.1,0l5.2-5.1l5.2,5.1c1.1,1.1,3,1.1,4.1,0l0,0c1.1-1.1,1.1-3,0-4.1
		l-5.1-5.1l5.1-5.1c1.1-1.1,1.1-3,0-4.1l0,0c-1.1-1.1-3-1.1-4.1,0l-5.2,5.1l-5.2-5.1c-1.1-1.1-3-1.1-4.1,0l0,0c-1.1,1.1-1.1,3,0,4.1
		l5.1,5.1l-5.1,5.1C391.3,75.7,391.3,77.5,392.4,78.6z"/>
	<path class="st0" d="M345.1,78.9L345.1,78.9c1.1,1.1,3,1.1,4.1,0l5.2-5.1l5.2,5.1c1.1,1.1,3,1.1,4.1,0l0,0c1.1-1.1,1.1-3,0-4.1
		l-5.1-5.1l5.1-5.1c1.1-1.1,1.1-3,0-4.1l0,0c-1.1-1.1-3-1.1-4.1,0l-5.2,5.1l-5.2-5.1c-1.1-1.1-3-1.1-4.1,0l0,0c-1.1,1.1-1.1,3,0,4.1
		l5.1,5.1l-5.1,5.1C344,75.9,344,77.7,345.1,78.9z"/>
	<path class="st0" d="M345.1,125.8L345.1,125.8c1.1,1.1,3,1.1,4.1,0l5.2-5.1l5.2,5.1c1.1,1.1,3,1.1,4.1,0l0,0c1.1-1.1,1.1-3,0-4.1
		l-5.1-5.1l5.1-5.1c1.1-1.1,1.1-3,0-4.1l0,0c-1.1-1.1-3-1.1-4.1,0l-5.2,5.1l-5.2-5.1c-1.1-1.1-3-1.1-4.1,0l0,0c-1.1,1.1-1.1,3,0,4.1
		l5.1,5.1l-5.1,5.1C344,122.9,344,124.7,345.1,125.8z"/>
	<path class="st0" d="M359.5,149.5c1.1,1.1,3,1.1,4.1,0l0,0c1.1-1.1,1.1-3,0-4.1l-5.1-5.1l5.1-5.1c1.1-1.1,1.1-3,0-4.1l0,0
		c-1.1-1.1-3-1.1-4.1,0l-5.2,5.1l-5.2-5.1c-1.1-1.1-3-1.1-4.1,0l0,0c-1.1,1.1-1.1,3,0,4.1l5.1,5.1l-5.1,5.1c-1.1,1.1-1.1,3,0,4.1
		l0,0c1.1,1.1,3,1.1,4.1,0l5.2-5.1L359.5,149.5z"/>
	<path class="st0" d="M103.7,84.1c-1.1-1.1-3-1.1-4.1,0l0,0c-1.1,1.1-1.1,3,0,4.1l5.1,5.1l-5.1,5.1c-1.1,1.1-1.1,3,0,4.1l0,0
		c1.1,1.1,3,1.1,4.1,0l5.2-5.1l5.2,5.1c1.1,1.1,3,1.1,4.1,0l0,0c1.1-1.1,1.1-3,0-4.1l-5.1-5.1l5.1-5.1c1.1-1.1,1.1-3,0-4.1l0,0
		c-1.1-1.1-3-1.1-4.1,0l-5.2,5.1L103.7,84.1z"/>
	<path class="st0" d="M91.8,78.9L91.8,78.9c1.1,1.1,3,1.1,4.1,0l5.2-5.1l5.2,5.1c1.1,1.1,3,1.1,4.1,0l0,0c1.1-1.1,1.1-3,0-4.1
		l-5.1-5.1l5.1-5.1c1.1-1.1,1.1-3,0-4.1l0,0c-1.1-1.1-3-1.1-4.1,0l-5.2,5.1l-5.2-5.1c-1.1-1.1-3-1.1-4.1,0l0,0c-1.1,1.1-1.1,3,0,4.1
		l5.1,5.1l-5.1,5.1C90.7,75.9,90.7,77.7,91.8,78.9z"/>
	<path class="st0" d="M46.3,78.9L46.3,78.9c1.1,1.1,3,1.1,4.1,0l5.2-5.1l5.2,5.1c1.1,1.1,3,1.1,4.1,0l0,0c1.1-1.1,1.1-3,0-4.1
		l-5.1-5.1l5.1-5.1c1.1-1.1,1.1-3,0-4.1l0,0c-1.1-1.1-3-1.1-4.1,0l-5.2,5.1l-5.2-5.1c-1.1-1.1-3-1.1-4.1,0l0,0c-1.1,1.1-1.1,3,0,4.1
		l5.1,5.1l-5.1,5.1C45.2,75.9,45.2,77.7,46.3,78.9z"/>
	<path class="st0" d="M46.3,102.5L46.3,102.5c1.1,1.1,3,1.1,4.1,0l5.2-5.1l5.2,5.1c1.1,1.1,3,1.1,4.1,0l0,0c1.1-1.1,1.1-3,0-4.1
		l-5.1-5.1l5.1-5.1c1.1-1.1,1.1-3,0-4.1l0,0c-1.1-1.1-3-1.1-4.1,0l-5.2,5.1l-5.2-5.1c-1.1-1.1-3-1.1-4.1,0l0,0c-1.1,1.1-1.1,3,0,4.1
		l5.1,5.1l-5.1,5.1C45.2,99.6,45.2,101.4,46.3,102.5z"/>
	<path class="st0" d="M87.3,107.4L87.3,107.4c-1.1-1.1-3-1.1-4.1,0l-5.2,5.1l-5.2-5.1c-1.1-1.1-3-1.1-4.1,0l0,0
		c-1.1,1.1-1.1,3,0,4.1l5.1,5.1l-5.1,5.1c-1.1,1.1-1.1,3,0,4.1l0,0c1.1,1.1,3,1.1,4.1,0l5.2-5.1l5.2,5.1c1.1,1.1,3,1.1,4.1,0l0,0
		c1.1-1.1,1.1-3,0-4.1l-5.1-5.1l5.1-5.1C88.4,110.4,88.4,108.5,87.3,107.4z"/>
	<path class="st0" d="M46.3,125.8L46.3,125.8c1.1,1.1,3,1.1,4.1,0l5.2-5.1l5.2,5.1c1.1,1.1,3,1.1,4.1,0l0,0c1.1-1.1,1.1-3,0-4.1
		l-5.1-5.1l5.1-5.1c1.1-1.1,1.1-3,0-4.1l0,0c-1.1-1.1-3-1.1-4.1,0l-5.2,5.1l-5.2-5.1c-1.1-1.1-3-1.1-4.1,0l0,0c-1.1,1.1-1.1,3,0,4.1
		l5.1,5.1l-5.1,5.1C45.2,122.9,45.2,124.7,46.3,125.8z"/>
	<path class="st0" d="M64.9,151.2L64.9,151.2c-1.1-1.1-3-1.1-4.1,0l-5.2,5.1l-5.2-5.1c-1.1-1.1-3-1.1-4.1,0l0,0
		c-1.1,1.1-1.1,3,0,4.1l5.1,5.1l-5.1,5.1c-1.1,1.1-1.1,3,0,4.1l0,0c1.1,1.1,3,1.1,4.1,0l5.2-5.1l5.2,5.1c1.1,1.1,3,1.1,4.1,0l0,0
		c1.1-1.1,1.1-3,0-4.1l-5.1-5.1l5.1-5.1C66,154.2,66,152.4,64.9,151.2z"/>
	<path class="st0" d="M442.2,102.5L442.2,102.5c1.1,1.1,3,1.1,4.1,0l5.2-5.1l5.2,5.1c1.1,1.1,3,1.1,4.1,0l0,0c1.1-1.1,1.1-3,0-4.1
		l-5.1-5.1l5.1-5.1c1.1-1.1,1.1-3,0-4.1l0,0c-1.1-1.1-3-1.1-4.1,0l-5.2,5.1l-5.2-5.1c-1.1-1.1-3-1.1-4.1,0l0,0c-1.1,1.1-1.1,3,0,4.1
		l5.1,5.1l-5.1,5.1C441.1,99.6,441.1,101.4,442.2,102.5z"/>
	<path class="st0" d="M442.2,149.5L442.2,149.5c1.1,1.1,3,1.1,4.1,0l5.2-5.1l5.2,5.1c1.1,1.1,3,1.1,4.1,0l0,0c1.1-1.1,1.1-3,0-4.1
		l-5.1-5.1l5.1-5.1c1.1-1.1,1.1-3,0-4.1l0,0c-1.1-1.1-3-1.1-4.1,0l-5.2,5.1l-5.2-5.1c-1.1-1.1-3-1.1-4.1,0l0,0c-1.1,1.1-1.1,3,0,4.1
		l5.1,5.1l-5.1,5.1C441.1,146.5,441.1,148.4,442.2,149.5z"/>
	<path class="st0" d="M432.1,172.8L432.1,172.8c1.1,1.1,3,1.1,4.1,0l5.2-5.1l5.2,5.1c1.1,1.1,3,1.1,4.1,0l0,0c1.1-1.1,1.1-3,0-4.1
		l-5.1-5.1l5.1-5.1c1.1-1.1,1.1-3,0-4.1l0,0c-1.1-1.1-3-1.1-4.1,0l-5.2,5.1l-5.2-5.1c-1.1-1.1-3-1.1-4.1,0l0,0c-1.1,1.1-1.1,3,0,4.1
		l5.1,5.1l-5.1,5.1C431,169.8,431,171.7,432.1,172.8z"/>
	<path class="st0" d="M409.4,154.4L409.4,154.4c-1.1,1.1-1.1,3,0,4.1l5.1,5.1l-5.1,5.1c-1.1,1.1-1.1,3,0,4.1l0,0
		c1.1,1.1,3,1.1,4.1,0l5.2-5.1l5.2,5.1c1.1,1.1,3,1.1,4.1,0l0,0c1.1-1.1,1.1-3,0-4.1l-5.1-5.1l5.1-5.1c1.1-1.1,1.1-3,0-4.1l0,0
		c-1.1-1.1-3-1.1-4.1,0l-5.2,5.1l-5.2-5.1C412.4,153.2,410.5,153.2,409.4,154.4z"/>
	<path class="st0" d="M410.9,149.5L410.9,149.5c1.1-1.1,1.1-3,0-4.1l-5.1-5.1l5.1-5.1c1.1-1.1,1.1-3,0-4.1l0,0c-1.1-1.1-3-1.1-4.1,0
		l-5.2,5.1l-5.2-5.1c-1.1-1.1-3-1.1-4.1,0l0,0c-1.1,1.1-1.1,3,0,4.1l5.1,5.1l-5.1,5.1c-1.1,1.1-1.1,3,0,4.1l0,0c1.1,1.1,3,1.1,4.1,0
		l5.2-5.1l5.2,5.1C408,150.7,409.8,150.7,410.9,149.5z"/>
	<path class="st0" d="M485.1,78.6L485.1,78.6c1.1,1.1,3,1.1,4.1,0l5.2-5.1l5.2,5.1c1.1,1.1,3,1.1,4.1,0l0,0c1.1-1.1,1.1-3,0-4.1
		l-5.1-5.1l5.1-5.1c1.1-1.1,1.1-3,0-4.1l0,0c-1.1-1.1-3-1.1-4.1,0l-5.2,5.1l-5.2-5.1c-1.1-1.1-3-1.1-4.1,0l0,0c-1.1,1.1-1.1,3,0,4.1
		l5.1,5.1l-5.1,5.1C483.9,75.7,483.9,77.5,485.1,78.6z"/>
	<path class="st0" d="M508,78.6L508,78.6c1.1,1.1,3,1.1,4.1,0l5.2-5.1l5.2,5.1c1.1,1.1,3,1.1,4.1,0l0,0c1.1-1.1,1.1-3,0-4.1
		l-5.1-5.1l5.1-5.1c1.1-1.1,1.1-3,0-4.1l0,0c-1.1-1.1-3-1.1-4.1,0l-5.2,5.1l-5.2-5.1c-1.1-1.1-3-1.1-4.1,0l0,0c-1.1,1.1-1.1,3,0,4.1
		l5.1,5.1l-5.1,5.1C506.9,75.7,506.9,77.5,508,78.6z"/>
	<path class="st0" d="M549.5,84.1L549.5,84.1c-1.1-1.1-3-1.1-4.1,0l-5.2,5.1l-5.2-5.1c-1.1-1.1-3-1.1-4.1,0l0,0
		c-1.1,1.1-1.1,3,0,4.1l5.1,5.1l-5.1,5.1c-1.1,1.1-1.1,3,0,4.1l0,0c1.1,1.1,3,1.1,4.1,0l5.2-5.1l5.2,5.1c1.1,1.1,3,1.1,4.1,0l0,0
		c1.1-1.1,1.1-3,0-4.1l-5.1-5.1l5.1-5.1C550.6,87.1,550.6,85.2,549.5,84.1z"/>
	<path class="st0" d="M549.5,107.4L549.5,107.4c-1.1-1.1-3-1.1-4.1,0l-5.2,5.1l-5.2-5.1c-1.1-1.1-3-1.1-4.1,0l0,0
		c-1.1,1.1-1.1,3,0,4.1l5.1,5.1l-5.1,5.1c-1.1,1.1-1.1,3,0,4.1l0,0c1.1,1.1,3,1.1,4.1,0l5.2-5.1l5.2,5.1c1.1,1.1,3,1.1,4.1,0l0,0
		c1.1-1.1,1.1-3,0-4.1l-5.1-5.1l5.1-5.1C550.6,110.4,550.6,108.5,549.5,107.4z"/>
	<path class="st0" d="M549.5,154.4L549.5,154.4c-1.1-1.1-3-1.1-4.1,0l-5.2,5.1l-5.2-5.1c-1.1-1.1-3-1.1-4.1,0l0,0
		c-1.1,1.1-1.1,3,0,4.1l5.1,5.1l-5.1,5.1c-1.1,1.1-1.1,3,0,4.1l0,0c1.1,1.1,3,1.1,4.1,0l5.2-5.1l5.2,5.1c1.1,1.1,3,1.1,4.1,0l0,0
		c1.1-1.1,1.1-3,0-4.1l-5.1-5.1l5.1-5.1C550.6,157.3,550.6,155.5,549.5,154.4z"/>
	<path class="st0" d="M503.6,131.1L503.6,131.1c-1.1-1.1-3-1.1-4.1,0l-5.2,5.1l-5.2-5.1c-1.1-1.1-3-1.1-4.1,0l0,0
		c-1.1,1.1-1.1,3,0,4.1l5.1,5.1l-5.1,5.1c-1.1,1.1-1.1,3,0,4.1l0,0c1.1,1.1,3,1.1,4.1,0l5.2-5.1l5.2,5.1c1.1,1.1,3,1.1,4.1,0l0,0
		c1.1-1.1,1.1-3,0-4.1l-5.1-5.1l5.1-5.1C504.7,134.1,504.7,132.2,503.6,131.1z"/>
	<path class="st0" d="M503.6,107.4L503.6,107.4c-1.1-1.1-3-1.1-4.1,0l-5.2,5.1l-5.2-5.1c-1.1-1.1-3-1.1-4.1,0l0,0
		c-1.1,1.1-1.1,3,0,4.1l5.1,5.1l-5.1,5.1c-1.1,1.1-1.1,3,0,4.1l0,0c1.1,1.1,3,1.1,4.1,0l5.2-5.1l5.2,5.1c1.1,1.1,3,1.1,4.1,0l0,0
		c1.1-1.1,1.1-3,0-4.1l-5.1-5.1l5.1-5.1C504.7,110.4,504.7,108.5,503.6,107.4z"/>
	<path class="st0" d="M442.2,78.9L442.2,78.9c1.1,1.1,3,1.1,4.1,0l5.2-5.1l5.2,5.1c1.1,1.1,3,1.1,4.1,0l0,0c1.1-1.1,1.1-3,0-4.1
		l-5.1-5.1l5.1-5.1c1.1-1.1,1.1-3,0-4.1l0,0c-1.1-1.1-3-1.1-4.1,0l-5.2,5.1l-5.2-5.1c-1.1-1.1-3-1.1-4.1,0l0,0c-1.1,1.1-1.1,3,0,4.1
		l5.1,5.1l-5.1,5.1C441.1,75.9,441.1,77.7,442.2,78.9z"/>
	<path class="st0" d="M783,107.4L783,107.4c-1.1,1.1-1.1,3,0,4.1l5.1,5.1l-5.1,5.1c-1.1,1.1-1.1,3,0,4.1l0,0c1.1,1.1,3,1.1,4.1,0
		l5.2-5.1l5.2,5.1c1.1,1.1,3,1.1,4.1,0l0,0c1.1-1.1,1.1-3,0-4.1l-5.1-5.1l5.1-5.1c1.1-1.1,1.1-3,0-4.1l0,0c-1.1-1.1-3-1.1-4.1,0
		l-5.2,5.1l-5.2-5.1C785.9,106.3,784.1,106.3,783,107.4z"/>
	<path class="st0" d="M758.1,78.9L758.1,78.9c1.1,1.1,3,1.1,4.1,0l5.2-5.1l5.2,5.1c1.1,1.1,3,1.1,4.1,0l0,0c1.1-1.1,1.1-3,0-4.1
		l-5.1-5.1l5.1-5.1c1.1-1.1,1.1-3,0-4.1l0,0c-1.1-1.1-3-1.1-4.1,0l-5.2,5.1l-5.2-5.1c-1.1-1.1-3-1.1-4.1,0l0,0c-1.1,1.1-1.1,3,0,4.1
		l5.1,5.1l-5.1,5.1C756.9,75.9,756.9,77.7,758.1,78.9z"/>
	<path class="st0" d="M719.6,78.6L719.6,78.6c1.1,1.1,3,1.1,4.1,0l5.2-5.1l5.2,5.1c1.1,1.1,3,1.1,4.1,0l0,0c1.1-1.1,1.1-3,0-4.1
		l-5.1-5.1l5.1-5.1c1.1-1.1,1.1-3,0-4.1l0,0c-1.1-1.1-3-1.1-4.1,0l-5.2,5.1l-5.2-5.1c-1.1-1.1-3-1.1-4.1,0l0,0c-1.1,1.1-1.1,3,0,4.1
		l5.1,5.1l-5.1,5.1C718.5,75.7,718.5,77.5,719.6,78.6z"/>
	<path class="st0" d="M726,149.5c1.1,1.1,3,1.1,4.1,0l0,0c1.1-1.1,1.1-3,0-4.1l-5.1-5.1l5.1-5.1c1.1-1.1,1.1-3,0-4.1l0,0
		c-1.1-1.1-3-1.1-4.1,0l-5.2,5.1l-5.2-5.1c-1.1-1.1-3-1.1-4.1,0l0,0c-1.1,1.1-1.1,3,0,4.1l5.1,5.1l-5.1,5.1c-1.1,1.1-1.1,3,0,4.1
		l0,0c1.1,1.1,3,1.1,4.1,0l5.2-5.1L726,149.5z"/>
	<path class="st0" d="M694.1,131.1L694.1,131.1c-1.1-1.1-3-1.1-4.1,0l-5.2,5.1l-5.2-5.1c-1.1-1.1-3-1.1-4.1,0l0,0
		c-1.1,1.1-1.1,3,0,4.1l5.1,5.1l-5.1,5.1c-1.1,1.1-1.1,3,0,4.1l0,0c1.1,1.1,3,1.1,4.1,0l5.2-5.1l5.2,5.1c1.1,1.1,3,1.1,4.1,0l0,0
		c1.1-1.1,1.1-3,0-4.1l-5.1-5.1l5.1-5.1C695.2,134.1,695.2,132.2,694.1,131.1z"/>
	<path class="st0" d="M675.5,78.6L675.5,78.6c1.1,1.1,3,1.1,4.1,0l5.2-5.1l5.2,5.1c1.1,1.1,3,1.1,4.1,0l0,0c1.1-1.1,1.1-3,0-4.1
		l-5.1-5.1l5.1-5.1c1.1-1.1,1.1-3,0-4.1l0,0c-1.1-1.1-3-1.1-4.1,0l-5.2,5.1l-5.2-5.1c-1.1-1.1-3-1.1-4.1,0l0,0c-1.1,1.1-1.1,3,0,4.1
		l5.1,5.1l-5.1,5.1C674.4,75.7,674.4,77.5,675.5,78.6z"/>
	<path class="st0" d="M600.9,77.9L600.9,77.9c1.1,1.1,3,1.1,4.1,0l5.2-5.1l5.2,5.1c1.1,1.1,3,1.1,4.1,0l0,0c1.1-1.1,1.1-3,0-4.1
		l-5.1-5.1l5.1-5.1c1.1-1.1,1.1-3,0-4.1l0,0c-1.1-1.1-3-1.1-4.1,0l-5.2,5.1l-5.2-5.1c-1.1-1.1-3-1.1-4.1,0l0,0c-1.1,1.1-1.1,3,0,4.1
		l5.1,5.1l-5.1,5.1C599.7,74.9,599.7,76.7,600.9,77.9z"/>
	<path class="st0" d="M596.5,84.1L596.5,84.1c-1.1-1.1-3-1.1-4.1,0l-5.2,5.1l-5.2-5.1c-1.1-1.1-3-1.1-4.1,0l0,0
		c-1.1,1.1-1.1,3,0,4.1l5.1,5.1l-5.1,5.1c-1.1,1.1-1.1,3,0,4.1l0,0c1.1,1.1,3,1.1,4.1,0l5.2-5.1l5.2,5.1c1.1,1.1,3,1.1,4.1,0l0,0
		c1.1-1.1,1.1-3,0-4.1l-5.1-5.1l5.1-5.1C597.6,87.1,597.6,85.2,596.5,84.1z"/>
	<path class="st0" d="M636.4,89.2l-5.2-5.1c-1.1-1.1-3-1.1-4.1,0l0,0c-1.1,1.1-1.1,3,0,4.1l5.1,5.1l-5.1,5.1c-1.1,1.1-1.1,3,0,4.1
		l0,0c1.1,1.1,3,1.1,4.1,0l5.2-5.1l5.2,5.1c1.1,1.1,3,1.1,4.1,0l0,0c1.1-1.1,1.1-3,0-4.1l-5.1-5.1l5.1-5.1c1.1-1.1,1.1-3,0-4.1l0,0
		c-1.1-1.1-3-1.1-4.1,0L636.4,89.2z"/>
	<path class="st0" d="M596.5,107.4L596.5,107.4c-1.1-1.1-3-1.1-4.1,0l-5.2,5.1l-5.2-5.1c-1.1-1.1-3-1.1-4.1,0l0,0
		c-1.1,1.1-1.1,3,0,4.1l5.1,5.1l-5.1,5.1c-1.1,1.1-1.1,3,0,4.1l0,0c1.1,1.1,3,1.1,4.1,0l5.2-5.1l5.2,5.1c1.1,1.1,3,1.1,4.1,0l0,0
		c1.1-1.1,1.1-3,0-4.1l-5.1-5.1l5.1-5.1C597.6,110.4,597.6,108.5,596.5,107.4z"/>
	<path class="st0" d="M600.9,125.8L600.9,125.8c1.1,1.1,3,1.1,4.1,0l5.2-5.1l5.2,5.1c1.1,1.1,3,1.1,4.1,0l0,0c1.1-1.1,1.1-3,0-4.1
		l-5.1-5.1l5.1-5.1c1.1-1.1,1.1-3,0-4.1l0,0c-1.1-1.1-3-1.1-4.1,0l-5.2,5.1l-5.2-5.1c-1.1-1.1-3-1.1-4.1,0l0,0c-1.1,1.1-1.1,3,0,4.1
		l5.1,5.1l-5.1,5.1C599.7,122.9,599.7,124.7,600.9,125.8z"/>
	<path class="st0" d="M644.1,154.4l-5.2,5.1l-5.2-5.1c-1.1-1.1-3-1.1-4.1,0l0,0c-1.1,1.1-1.1,3,0,4.1l5.1,5.1l-5.1,5.1
		c-1.1,1.1-1.1,3,0,4.1l0,0c1.1,1.1,3,1.1,4.1,0l5.2-5.1l5.2,5.1c1.1,1.1,3,1.1,4.1,0l0,0c1.1-1.1,1.1-3,0-4.1l-5.1-5.1l5.1-5.1
		c1.1-1.1,1.1-3,0-4.1l0,0C647,153.2,645.2,153.2,644.1,154.4z"/>
	<path class="st0" d="M596.5,154.4L596.5,154.4c-1.1-1.1-3-1.1-4.1,0l-5.2,5.1l-5.2-5.1c-1.1-1.1-3-1.1-4.1,0l0,0
		c-1.1,1.1-1.1,3,0,4.1l5.1,5.1l-5.1,5.1c-1.1,1.1-1.1,3,0,4.1l0,0c1.1,1.1,3,1.1,4.1,0l5.2-5.1l5.2,5.1c1.1,1.1,3,1.1,4.1,0l0,0
		c1.1-1.1,1.1-3,0-4.1l-5.1-5.1l5.1-5.1C597.6,157.3,597.6,155.5,596.5,154.4z"/>
	<path class="st0" d="M801.5,154.4L801.5,154.4c-1.1-1.1-3-1.1-4.1,0l-5.2,5.1l-5.2-5.1c-1.1-1.1-3-1.1-4.1,0l0,0
		c-1.1,1.1-1.1,3,0,4.1l5.1,5.1l-5.1,5.1c-1.1,1.1-1.1,3,0,4.1l0,0c1.1,1.1,3,1.1,4.1,0l5.2-5.1l5.2,5.1c1.1,1.1,3,1.1,4.1,0l0,0
		c1.1-1.1,1.1-3,0-4.1l-5.1-5.1l5.1-5.1C802.6,157.3,802.6,155.5,801.5,154.4z"/>
	<path class="st0" d="M203.8,152.8c-6,0-10.8,4.8-10.8,10.8c0,6,4.8,10.8,10.8,10.8c6,0,10.8-4.8,10.8-10.8
		C214.6,157.6,209.7,152.8,203.8,152.8z M203.8,168.8c-2.9,0-5.2-2.3-5.2-5.2c0-2.9,2.3-5.2,5.2-5.2c2.9,0,5.2,2.3,5.2,5.2
		C209,166.5,206.7,168.8,203.8,168.8z"/>
	<path class="st0" d="M226.6,152.8c-6,0-10.8,4.8-10.8,10.8c0,6,4.8,10.8,10.8,10.8c6,0,10.8-4.8,10.8-10.8
		C237.5,157.6,232.6,152.8,226.6,152.8z M226.6,168.8c-2.9,0-5.2-2.3-5.2-5.2c0-2.9,2.3-5.2,5.2-5.2c2.9,0,5.2,2.3,5.2,5.2
		C231.9,166.5,229.5,168.8,226.6,168.8z"/>
	<path class="st0" d="M232.2,117.6c0-6-4.8-10.8-10.8-10.8c-6,0-10.8,4.8-10.8,10.8c0,6,4.8,10.8,10.8,10.8
		C227.4,128.4,232.2,123.6,232.2,117.6z M216.2,117.6c0-2.9,2.3-5.2,5.2-5.2c2.9,0,5.2,2.3,5.2,5.2s-2.3,5.2-5.2,5.2
		C218.5,122.8,216.2,120.5,216.2,117.6z"/>
	<path class="st0" d="M202.3,116.6c6,0,10.8-4.8,10.8-10.8c0-6-4.8-10.8-10.8-10.8c-6,0-10.8,4.8-10.8,10.8
		C191.5,111.8,196.3,116.6,202.3,116.6z M202.3,100.6c2.9,0,5.2,2.3,5.2,5.2c0,2.9-2.3,5.2-5.2,5.2c-2.9,0-5.2-2.3-5.2-5.2
		C197.1,102.9,199.4,100.6,202.3,100.6z"/>
	<path class="st0" d="M182.1,104.1c6,0,10.8-4.8,10.8-10.8c0-6-4.8-10.8-10.8-10.8c-6,0-10.8,4.8-10.8,10.8
		C171.3,99.3,176.1,104.1,182.1,104.1z M182.1,88.1c2.9,0,5.2,2.3,5.2,5.2c0,2.9-2.3,5.2-5.2,5.2c-2.9,0-5.2-2.3-5.2-5.2
		C176.9,90.4,179.2,88.1,182.1,88.1z"/>
	<path class="st0" d="M193.9,69.4c0,6,4.8,10.8,10.8,10.8c6,0,10.8-4.8,10.8-10.8c0-6-4.8-10.8-10.8-10.8
		C198.8,58.6,193.9,63.4,193.9,69.4z M204.8,64.2c2.9,0,5.2,2.3,5.2,5.2c0,2.9-2.3,5.2-5.2,5.2c-2.9,0-5.2-2.3-5.2-5.2
		C199.5,66.5,201.9,64.2,204.8,64.2z"/>
	<path class="st0" d="M264.8,104.1c6,0,10.8-4.8,10.8-10.8c0-6-4.8-10.8-10.8-10.8c-6,0-10.8,4.8-10.8,10.8
		C254,99.3,258.8,104.1,264.8,104.1z M264.8,88.1c2.9,0,5.2,2.3,5.2,5.2c0,2.9-2.3,5.2-5.2,5.2c-2.9,0-5.2-2.3-5.2-5.2
		C259.5,90.4,261.9,88.1,264.8,88.1z"/>
	<path class="st0" d="M401.7,127.5c6,0,10.8-4.8,10.8-10.8c0-6-4.8-10.8-10.8-10.8c-6,0-10.8,4.8-10.8,10.8
		C390.9,122.6,395.7,127.5,401.7,127.5z M401.7,111.4c2.9,0,5.2,2.3,5.2,5.2s-2.3,5.2-5.2,5.2c-2.9,0-5.2-2.3-5.2-5.2
		S398.8,111.4,401.7,111.4z"/>
	<path class="st0" d="M385.6,174.4c6,0,10.8-4.8,10.8-10.8c0-6-4.8-10.8-10.8-10.8c-6,0-10.8,4.8-10.8,10.8
		C374.8,169.6,379.7,174.4,385.6,174.4z M385.6,158.4c2.9,0,5.2,2.3,5.2,5.2c0,2.9-2.3,5.2-5.2,5.2c-2.9,0-5.2-2.3-5.2-5.2
		C380.4,160.7,382.7,158.4,385.6,158.4z"/>
	<path class="st0" d="M351,163.6c0,6,4.8,10.8,10.8,10.8s10.8-4.8,10.8-10.8c0-6-4.8-10.8-10.8-10.8S351,157.6,351,163.6z
		 M367.1,163.6c0,2.9-2.3,5.2-5.2,5.2c-2.9,0-5.2-2.3-5.2-5.2c0-2.9,2.3-5.2,5.2-5.2C364.8,158.4,367.1,160.7,367.1,163.6z"/>
	<path class="st0" d="M354.4,104.1c6,0,10.8-4.8,10.8-10.8c0-6-4.8-10.8-10.8-10.8c-6,0-10.8,4.8-10.8,10.8
		C343.5,99.3,348.4,104.1,354.4,104.1z M354.4,88.1c2.9,0,5.2,2.3,5.2,5.2c0,2.9-2.3,5.2-5.2,5.2c-2.9,0-5.2-2.3-5.2-5.2
		C349.1,90.4,351.5,88.1,354.4,88.1z"/>
	<path class="st0" d="M313.7,186.1c0-6-4.8-10.8-10.8-10.8c-6,0-10.8,4.8-10.8,10.8c0,6,4.8,10.8,10.8,10.8
		C308.9,196.9,313.7,192,313.7,186.1z M302.9,191.3c-2.9,0-5.2-2.3-5.2-5.2c0-2.9,2.3-5.2,5.2-5.2c2.9,0,5.2,2.3,5.2,5.2
		C308.1,188.9,305.8,191.3,302.9,191.3z"/>
	<path class="st0" d="M55.6,149c6,0,10.8-4.8,10.8-10.8c0-6-4.8-10.8-10.8-10.8c-6,0-10.8,4.8-10.8,10.8
		C44.8,144.2,49.6,149,55.6,149z M55.6,133c2.9,0,5.2,2.3,5.2,5.2c0,2.9-2.3,5.2-5.2,5.2c-2.9,0-5.2-2.3-5.2-5.2
		C50.3,135.3,52.7,133,55.6,133z"/>
	<path class="st0" d="M78,80.5c6,0,10.8-4.8,10.8-10.8c0-6-4.8-10.8-10.8-10.8s-10.8,4.8-10.8,10.8C67.2,75.6,72.1,80.5,78,80.5z
		 M78,64.4c2.9,0,5.2,2.3,5.2,5.2s-2.3,5.2-5.2,5.2c-2.9,0-5.2-2.3-5.2-5.2S75.2,64.4,78,64.4z"/>
	<path class="st0" d="M101.8,127.5c6,0,10.8-4.8,10.8-10.8c0-6-4.8-10.8-10.8-10.8c-6,0-10.8,4.8-10.8,10.8
		C91,122.6,95.8,127.5,101.8,127.5z M101.8,111.4c2.9,0,5.2,2.3,5.2,5.2s-2.3,5.2-5.2,5.2c-2.9,0-5.2-2.3-5.2-5.2
		S98.9,111.4,101.8,111.4z"/>
	<path class="st0" d="M142.4,80.5c6,0,10.8-4.8,10.8-10.8c0-6-4.8-10.8-10.8-10.8c-6,0-10.8,4.8-10.8,10.8
		C131.6,75.6,136.4,80.5,142.4,80.5z M142.4,64.4c2.9,0,5.2,2.3,5.2,5.2s-2.3,5.2-5.2,5.2c-2.9,0-5.2-2.3-5.2-5.2
		S139.5,64.4,142.4,64.4z"/>
	<path class="st0" d="M142.4,149c6,0,10.8-4.8,10.8-10.8c0-6-4.8-10.8-10.8-10.8c-6,0-10.8,4.8-10.8,10.8
		C131.6,144.2,136.4,149,142.4,149z M142.4,133c2.9,0,5.2,2.3,5.2,5.2c0,2.9-2.3,5.2-5.2,5.2c-2.9,0-5.2-2.3-5.2-5.2
		C137.2,135.3,139.5,133,142.4,133z"/>
	<path class="st0" d="M311.2,151.1c6,0,10.8-4.8,10.8-10.8c0-6-4.8-10.8-10.8-10.8c-6,0-10.8,4.8-10.8,10.8
		C300.4,146.3,305.2,151.1,311.2,151.1z M311.2,135.1c2.9,0,5.2,2.3,5.2,5.2c0,2.9-2.3,5.2-5.2,5.2c-2.9,0-5.2-2.3-5.2-5.2
		C305.9,137.4,308.3,135.1,311.2,135.1z"/>
	<path class="st0" d="M264.8,174.4c6,0,10.8-4.8,10.8-10.8c0-6-4.8-10.8-10.8-10.8c-6,0-10.8,4.8-10.8,10.8
		C254,169.6,258.8,174.4,264.8,174.4z M264.8,158.4c2.9,0,5.2,2.3,5.2,5.2c0,2.9-2.3,5.2-5.2,5.2c-2.9,0-5.2-2.3-5.2-5.2
		C259.5,160.7,261.9,158.4,264.8,158.4z"/>
	<path class="st0" d="M586.5,80.2c6,0,10.8-4.8,10.8-10.8c0-6-4.8-10.8-10.8-10.8c-6,0-10.8,4.8-10.8,10.8
		C575.6,75.4,580.5,80.2,586.5,80.2z M586.5,64.2c2.9,0,5.2,2.3,5.2,5.2c0,2.9-2.3,5.2-5.2,5.2c-2.9,0-5.2-2.3-5.2-5.2
		C581.2,66.5,583.6,64.2,586.5,64.2z"/>
	<path class="st0" d="M586.5,150.1c6,0,10.8-4.8,10.8-10.8c0-6-4.8-10.8-10.8-10.8c-6,0-10.8,4.8-10.8,10.8
		C575.6,145.2,580.5,150.1,586.5,150.1z M586.5,134c2.9,0,5.2,2.3,5.2,5.2c0,2.9-2.3,5.2-5.2,5.2c-2.9,0-5.2-2.3-5.2-5.2
		C581.2,136.3,583.6,134,586.5,134z"/>
	<path class="st0" d="M494.3,104.1c6,0,10.8-4.8,10.8-10.8c0-6-4.8-10.8-10.8-10.8c-6,0-10.8,4.8-10.8,10.8
		C483.5,99.3,488.4,104.1,494.3,104.1z M494.3,88.1c2.9,0,5.2,2.3,5.2,5.2c0,2.9-2.3,5.2-5.2,5.2c-2.9,0-5.2-2.3-5.2-5.2
		C489.1,90.4,491.4,88.1,494.3,88.1z"/>
	<path class="st0" d="M540.2,80.2c6,0,10.8-4.8,10.8-10.8c0-6-4.8-10.8-10.8-10.8c-6,0-10.8,4.8-10.8,10.8
		C529.4,75.4,534.2,80.2,540.2,80.2z M540.2,64.2c2.9,0,5.2,2.3,5.2,5.2c0,2.9-2.3,5.2-5.2,5.2c-2.9,0-5.2-2.3-5.2-5.2
		C535,66.5,537.3,64.2,540.2,64.2z"/>
	<path class="st0" d="M540.2,151.1c6,0,10.8-4.8,10.8-10.8c0-6-4.8-10.8-10.8-10.8c-6,0-10.8,4.8-10.8,10.8
		C529.4,146.3,534.2,151.1,540.2,151.1z M540.2,135.1c2.9,0,5.2,2.3,5.2,5.2c0,2.9-2.3,5.2-5.2,5.2c-2.9,0-5.2-2.3-5.2-5.2
		C535,137.4,537.3,135.1,540.2,135.1z"/>
	<path class="st0" d="M517.3,174.4c6,0,10.8-4.8,10.8-10.8c0-6-4.8-10.8-10.8-10.8c-6,0-10.8,4.8-10.8,10.8
		C506.4,169.6,511.3,174.4,517.3,174.4z M517.3,158.4c2.9,0,5.2,2.3,5.2,5.2c0,2.9-2.3,5.2-5.2,5.2c-2.9,0-5.2-2.3-5.2-5.2
		C512,160.7,514.4,158.4,517.3,158.4z"/>
	<path class="st0" d="M494.3,174.4c6,0,10.8-4.8,10.8-10.8c0-6-4.8-10.8-10.8-10.8c-6,0-10.8,4.8-10.8,10.8
		C483.5,169.6,488.4,174.4,494.3,174.4z M494.3,158.4c2.9,0,5.2,2.3,5.2,5.2c0,2.9-2.3,5.2-5.2,5.2c-2.9,0-5.2-2.3-5.2-5.2
		C489.1,160.7,491.4,158.4,494.3,158.4z"/>
	<path class="st0" d="M452.2,127.5c6,0,10.8-4.8,10.8-10.8c0-6-4.8-10.8-10.8-10.8c-6,0-10.8,4.8-10.8,10.8
		C441.4,122.6,446.2,127.5,452.2,127.5z M452.2,111.4c2.9,0,5.2,2.3,5.2,5.2s-2.3,5.2-5.2,5.2c-2.9,0-5.2-2.3-5.2-5.2
		S449.3,111.4,452.2,111.4z"/>
	<path class="st0" d="M720.8,104.1c6,0,10.8-4.8,10.8-10.8c0-6-4.8-10.8-10.8-10.8c-6,0-10.8,4.8-10.8,10.8
		C710,99.3,714.9,104.1,720.8,104.1z M720.8,88.1c2.9,0,5.2,2.3,5.2,5.2c0,2.9-2.3,5.2-5.2,5.2c-2.9,0-5.2-2.3-5.2-5.2
		C715.6,90.4,718,88.1,720.8,88.1z"/>
	<path class="st0" d="M707.4,126.6c6,0,10.8-4.8,10.8-10.8s-4.8-10.8-10.8-10.8c-6,0-10.8,4.8-10.8,10.8S701.4,126.6,707.4,126.6z
		 M707.4,110.5c2.9,0,5.2,2.3,5.2,5.2s-2.3,5.2-5.2,5.2c-2.9,0-5.2-2.3-5.2-5.2S704.5,110.5,707.4,110.5z"/>
	<path class="st0" d="M728.9,152.8c-6,0-10.8,4.8-10.8,10.8c0,6,4.8,10.8,10.8,10.8c6,0,10.8-4.8,10.8-10.8
		C739.7,157.6,734.9,152.8,728.9,152.8z M728.9,168.8c-2.9,0-5.2-2.3-5.2-5.2c0-2.9,2.3-5.2,5.2-5.2c2.9,0,5.2,2.3,5.2,5.2
		C734.1,166.5,731.8,168.8,728.9,168.8z"/>
	<path class="st0" d="M684.8,174.4c6,0,10.8-4.8,10.8-10.8c0-6-4.8-10.8-10.8-10.8c-6,0-10.8,4.8-10.8,10.8
		C674,169.6,678.8,174.4,684.8,174.4z M684.8,158.4c2.9,0,5.2,2.3,5.2,5.2c0,2.9-2.3,5.2-5.2,5.2s-5.2-2.3-5.2-5.2
		C679.6,160.7,681.9,158.4,684.8,158.4z"/>
	<path class="st0" d="M684.8,104.1c6,0,10.8-4.8,10.8-10.8c0-6-4.8-10.8-10.8-10.8c-6,0-10.8,4.8-10.8,10.8
		C674,99.3,678.8,104.1,684.8,104.1z M684.8,88.1c2.9,0,5.2,2.3,5.2,5.2c0,2.9-2.3,5.2-5.2,5.2s-5.2-2.3-5.2-5.2
		C679.6,90.4,681.9,88.1,684.8,88.1z"/>
	<path class="st0" d="M631.1,127.5c6,0,10.8-4.8,10.8-10.8c0-6-4.8-10.8-10.8-10.8c-6,0-10.8,4.8-10.8,10.8
		C620.2,122.6,625.1,127.5,631.1,127.5z M631.1,111.4c2.9,0,5.2,2.3,5.2,5.2s-2.3,5.2-5.2,5.2c-2.9,0-5.2-2.3-5.2-5.2
		S628.2,111.4,631.1,111.4z"/>
	<path class="st0" d="M641.9,139.2c0-6-4.8-10.8-10.8-10.8c-6,0-10.8,4.8-10.8,10.8c0,6,4.8,10.8,10.8,10.8
		C637,150.1,641.9,145.2,641.9,139.2z M625.8,139.2c0-2.9,2.3-5.2,5.2-5.2c2.9,0,5.2,2.3,5.2,5.2c0,2.9-2.3,5.2-5.2,5.2
		C628.2,144.5,625.8,142.1,625.8,139.2z"/>
	<path class="st0" d="M631.1,80.2c6,0,10.8-4.8,10.8-10.8c0-6-4.8-10.8-10.8-10.8c-6,0-10.8,4.8-10.8,10.8
		C620.2,75.4,625.1,80.2,631.1,80.2z M631.1,64.2c2.9,0,5.2,2.3,5.2,5.2c0,2.9-2.3,5.2-5.2,5.2c-2.9,0-5.2-2.3-5.2-5.2
		C625.8,66.5,628.2,64.2,631.1,64.2z"/>
	<path class="st0" d="M767.3,93.3c0,6,4.8,10.8,10.8,10.8c6,0,10.8-4.8,10.8-10.8c0-6-4.8-10.8-10.8-10.8
		C772.2,82.5,767.3,87.3,767.3,93.3z M778.2,88.1c2.9,0,5.2,2.3,5.2,5.2c0,2.9-2.3,5.2-5.2,5.2c-2.9,0-5.2-2.3-5.2-5.2
		C772.9,90.4,775.3,88.1,778.2,88.1z"/>
	<path class="st0" d="M818.3,80.2c6,0,10.8-4.8,10.8-10.8c0-6-4.8-10.8-10.8-10.8c-6,0-10.8,4.8-10.8,10.8
		C807.5,75.4,812.3,80.2,818.3,80.2z M818.3,64.2c2.9,0,5.2,2.3,5.2,5.2c0,2.9-2.3,5.2-5.2,5.2c-2.9,0-5.2-2.3-5.2-5.2
		C813.1,66.5,815.4,64.2,818.3,64.2z"/>
	<path class="st0" d="M805.2,104.1c6,0,10.8-4.8,10.8-10.8c0-6-4.8-10.8-10.8-10.8c-6,0-10.8,4.8-10.8,10.8
		C794.4,99.3,799.2,104.1,805.2,104.1z M805.2,88.1c2.9,0,5.2,2.3,5.2,5.2c0,2.9-2.3,5.2-5.2,5.2c-2.9,0-5.2-2.3-5.2-5.2
		C800,90.4,802.3,88.1,805.2,88.1z"/>
	<path class="st0" d="M792.2,128.4c-6,0-10.8,4.8-10.8,10.8c0,6,4.8,10.8,10.8,10.8c6,0,10.8-4.8,10.8-10.8
		C803.1,133.3,798.2,128.4,792.2,128.4z M792.2,144.5c-2.9,0-5.2-2.3-5.2-5.2c0-2.9,2.3-5.2,5.2-5.2s5.2,2.3,5.2,5.2
		C797.5,142.1,795.1,144.5,792.2,144.5z"/>
	<path class="st0" d="M694.1,107.4L694.1,107.4c-1.1-1.1-3-1.1-4.1,0l-5.2,5.1l-5.2-5.1c-1.1-1.1-3-1.1-4.1,0l0,0
		c-1.1,1.1-1.1,3,0,4.1l5.1,5.1l-5.1,5.1c-1.1,1.1-1.1,3,0,4.1l0,0c1.1,1.1,3,1.1,4.1,0l5.2-5.1l5.2,5.1c1.1,1.1,3,1.1,4.1,0l0,0
		c1.1-1.1,1.1-3,0-4.1l-5.1-5.1l5.1-5.1C695.2,110.4,695.2,108.5,694.1,107.4z"/>
</g>
</svg>
