<?xml version="1.0" encoding="UTF-8"?>
<svg xmlns="http://www.w3.org/2000/svg" version="1.1" viewBox="54 54 705 705">
  <defs>
    <style>
      * {
        fill: #f2f2f2;
      }
    </style>
  </defs>
  <!-- Generator: Adobe Illustrator 28.6.0, SVG Export Plug-In . SVG Version: 1.2.0 Build 709)  -->
  <g>
    <g id="Vrstva_1">
      <g>
        <path d="M322.4,112.8h41.6v13.6c0,8.2,6.2,14.4,14.4,14.4s14.4-6.2,14.4-14.4v-28c0-8.2-6.2-14.4-14.4-14.4h-56c-8.2,0-14.4,6.2-14.4,14.4s6.2,14.4,14.4,14.4Z"/>
        <path d="M434.4,112.8h41.6v13.6c0,8.2,6.2,14.4,14.4,14.4s14.4-6.2,14.4-14.4v-13.6h13.6c8.2,0,14.4-6.2,14.4-14.4s-6.2-14.4-14.4-14.4h-69.6v-13.6c0-8.2-6.2-14.4-14.4-14.4s-14.4,6.2-14.4,14.4v28c0,8.2,6.2,14.4,14.4,14.4Z"/>
        <circle cx="350.4" cy="154.4" r="14.4" transform="translate(-6.6 293) rotate(-45)"/>
        <path d="M392,168v14.4c0,8.2,6.2,14.4,14.4,14.4s14.4-6.2,14.4-14.4v-13.6h41.6c8.2,0,14.4-6.2,14.4-14.4s-6.2-14.4-14.4-14.4h-56c-8.2,0-14.4,6.2-14.4,14.4v13.6Z"/>
        <circle cx="434.4" cy="210.4" r="14.4" transform="translate(-36.7 105.4) rotate(-13.3)"/>
        <circle cx="350.4" cy="238.4" r="14.4" transform="translate(-45.4 86.9) rotate(-13.3)"/>
        <circle cx="406.4" cy="238.4" r="14.4" transform="translate(-43.9 99.8) rotate(-13.3)"/>
        <path d="M532.8,224.8v-70.4c0-8.2-6.2-14.4-14.4-14.4s-14.4,6.2-14.4,14.4v41.6h-13.6c-8.2,0-14.4,6.2-14.4,14.4s6.2,14.4,14.4,14.4h13.6v13.6c0,8.2,6.2,14.4,14.4,14.4s14.4-6.2,14.4-14.4v-13.6Z"/>
        <circle cx="70.4" cy="294.4" r="14.4" transform="translate(-65.8 24.1) rotate(-13.3)"/>
        <path d="M238.4,280h-112c-8.2,0-14.4,6.2-14.4,14.4v13.6h-13.6c-8.2,0-14.4,6.2-14.4,14.4s6.2,14.4,14.4,14.4h56c8.2,0,14.4-6.2,14.4-14.4v-13.6h69.6c8.2,0,14.4-6.2,14.4-14.4s-6.2-14.4-14.4-14.4Z"/>
        <circle cx="378.4" cy="294.4" r="14.4" transform="translate(-57.5 94.8) rotate(-13.3)"/>
        <path d="M574.4,308.8h13.6v13.6c0,8.2,6.2,14.4,14.4,14.4s14.4-6.2,14.4-14.4v-13.6h69.6c8.2,0,14.4-6.2,14.4-14.4s-6.2-14.4-14.4-14.4h-112c-8.2,0-14.4,6.2-14.4,14.4s6.2,14.4,14.4,14.4Z"/>
        <circle cx="518.4" cy="322.4" r="14.4" transform="translate(-60.2 127.7) rotate(-13.3)"/>
        <path d="M224.8,364.8h13.6c8.2,0,14.4-6.2,14.4-14.4s-6.2-14.4-14.4-14.4h-28c-8.2,0-14.4,6.2-14.4,14.4s6.2,14.4,14.4,14.4h14.4Z"/>
        <circle cx="490.4" cy="350.4" r="14.4" transform="translate(-67.4 122) rotate(-13.3)"/>
        <circle cx="658.4" cy="350.4" r="14.4" transform="translate(-62.9 160.6) rotate(-13.3)"/>
        <path d="M742.4,336h-13.6v-13.6c0-8.2-6.2-14.4-14.4-14.4s-14.4,6.2-14.4,14.4v28c0,8.2,6.2,14.4,14.4,14.4h13.6v27.2h-41.6c-8.2,0-14.4,6.2-14.4,14.4s6.2,14.4,14.4,14.4h13.6v41.6c0,8.2,6.2,14.4,14.4,14.4h13.6v13.6c0,8.2,6.2,14.4,14.4,14.4s14.4-6.2,14.4-14.4v-28c0-8.2-6.2-14.4-14.4-14.4h-13.6v-27.2h13.6c8.2,0,14.4-6.2,14.4-14.4v-56c0-8.2-6.2-14.4-14.4-14.4Z"/>
        <path d="M154.4,392.8h28c8.2,0,14.4-6.2,14.4-14.4s-6.2-14.4-14.4-14.4h-28c-8.2,0-14.4,6.2-14.4,14.4s6.2,14.4,14.4,14.4Z"/>
        <path d="M210.4,420c-8.2,0-14.4,6.2-14.4,14.4v28c0,8.2,6.2,14.4,14.4,14.4h28c8.2,0,14.4-6.2,14.4-14.4s-6.2-14.4-14.4-14.4h-13.6v-13.6c0-8.2-6.2-14.4-14.4-14.4Z"/>
        <circle cx="126.4" cy="462.4" r="14.4" transform="translate(-102.9 41.4) rotate(-13.3)"/>
        <circle cx="266.4" cy="490.4" r="14.4" transform="translate(-105.5 74.3) rotate(-13.3)"/>
        <path d="M70.4,532.8c8.2,0,14.4-6.2,14.4-14.4v-69.6h13.6c8.2,0,14.4-6.2,14.4-14.4s-6.2-14.4-14.4-14.4h-13.6v-13.6c0-8.2-6.2-14.4-14.4-14.4s-14.4,6.2-14.4,14.4v112c0,8.2,6.2,14.4,14.4,14.4Z"/>
        <circle cx="126.4" cy="518.4" r="14.4" transform="translate(-115.7 42.9) rotate(-13.3)"/>
        <path d="M238.4,504h-56c-8.2,0-14.4,6.2-14.4,14.4s6.2,14.4,14.4,14.4h56c8.2,0,14.4-6.2,14.4-14.4s-6.2-14.4-14.4-14.4Z"/>
        <circle cx="686.4" cy="518.4" r="14.4" transform="translate(-100.7 171.6) rotate(-13.3)"/>
        <circle cx="294.4" cy="546.4" r="14.4" transform="translate(-117.7 82.3) rotate(-13.3)"/>
        <circle cx="322.4" cy="574.4" r="14.4" transform="translate(-123.3 89.4) rotate(-13.3)"/>
        <circle cx="574.4" cy="574.4" r="14.4" transform="translate(-116.6 147.3) rotate(-13.3)"/>
        <path d="M742.4,560h-56c-8.2,0-14.4,6.2-14.4,14.4s6.2,14.4,14.4,14.4h13.6v27.2h-13.6c-8.2,0-14.4,6.2-14.4,14.4v13.6h-27.2v-27.2h13.6c8.2,0,14.4-6.2,14.4-14.4s-6.2-14.4-14.4-14.4h-13.6v-27.2h13.6c8.2,0,14.4-6.2,14.4-14.4s-6.2-14.4-14.4-14.4h-13.6v-55.2h13.6c8.2,0,14.4-6.2,14.4-14.4v-28c0-8.2-6.2-14.4-14.4-14.4s-14.4,6.2-14.4,14.4v13.6h-27.2v-27.2h13.6c8.2,0,14.4-6.2,14.4-14.4s-6.2-14.4-14.4-14.4h-41.6v-13.6c0-8.2-6.2-14.4-14.4-14.4h-28c-8.2,0-14.4,6.2-14.4,14.4v13.6h-41.6c-8.2,0-14.4,6.2-14.4,14.4s6.2,14.4,14.4,14.4h13.6v27.2h-55.2v-41.6c0-8.2-6.2-14.4-14.4-14.4h-13.6v-27.2h13.6c8.2,0,14.4-6.2,14.4-14.4v-13.6h13.6c8.2,0,14.4-6.2,14.4-14.4v-84c0-8.2-6.2-14.4-14.4-14.4s-14.4,6.2-14.4,14.4v41.6h-13.6c-8.2,0-14.4,6.2-14.4,14.4v41.6h-55.2v-13.6c0-8.2-6.2-14.4-14.4-14.4h-13.6v-41.6c0-8.2-6.2-14.4-14.4-14.4h-13.6v-55.2h13.6c8.2,0,14.4-6.2,14.4-14.4s-6.2-14.4-14.4-14.4h-13.6v-41.6c0-8.2-6.2-14.4-14.4-14.4s-14.4,6.2-14.4,14.4v140c0,8.2,6.2,14.4,14.4,14.4h13.6v27.2h-13.6c-8.2,0-14.4,6.2-14.4,14.4s6.2,14.4,14.4,14.4h13.6v83.2h-27.2v-13.6c0-8.2-6.2-14.4-14.4-14.4h-28c-8.2,0-14.4,6.2-14.4,14.4s6.2,14.4,14.4,14.4h13.6v13.6c0,8.2,6.2,14.4,14.4,14.4h84c8.2,0,14.4-6.2,14.4-14.4v-13.6h55.2v27.2h-41.6c-8.2,0-14.4,6.2-14.4,14.4v41.6h-13.6c-8.2,0-14.4,6.2-14.4,14.4s6.2,14.4,14.4,14.4h28c8.2,0,14.4-6.2,14.4-14.4v-41.6h55.2v13.6c0,8.2,6.2,14.4,14.4,14.4s14.4-6.2,14.4-14.4v-13.6h27.2v55.2h-13.6c-8.2,0-14.4,6.2-14.4,14.4s6.2,14.4,14.4,14.4h13.6v55.2h-41.6c-8.2,0-14.4,6.2-14.4,14.4s6.2,14.4,14.4,14.4h41.6v13.6c0,8.2,6.2,14.4,14.4,14.4h13.6v13.6c0,8.2,6.2,14.4,14.4,14.4s14.4-6.2,14.4-14.4v-13.6h13.6c8.2,0,14.4-6.2,14.4-14.4v-13.6h27.2v13.6c0,8.2,6.2,14.4,14.4,14.4h13.6v27.2h-69.6c-8.2,0-14.4,6.2-14.4,14.4v13.6h-13.6c-8.2,0-14.4,6.2-14.4,14.4s6.2,14.4,14.4,14.4h196c8.2,0,14.4-6.2,14.4-14.4v-168c0-8.2-6.2-14.4-14.4-14.4ZM546.4,476h-13.6v-27.2h13.6c8.2,0,14.4-6.2,14.4-14.4v-13.6h27.2v27.2h-13.6c-8.2,0-14.4,6.2-14.4,14.4s6.2,14.4,14.4,14.4h13.6v27.2h-27.2v-13.6c0-8.2-6.2-14.4-14.4-14.4ZM588.8,616h-56v-83.2h83.2v83.2h-27.2ZM728,700.8v27.2h-55.2v-27.2h13.6c8.2,0,14.4-6.2,14.4-14.4v-13.6h27.2v28Z"/>
        <path d="M294.4,588c-8.2,0-14.4,6.2-14.4,14.4v84c0,8.2,6.2,14.4,14.4,14.4h28c8.2,0,14.4-6.2,14.4-14.4s-6.2-14.4-14.4-14.4h-13.6v-27.2h13.6c8.2,0,14.4-6.2,14.4-14.4s-6.2-14.4-14.4-14.4h-13.6v-13.6c0-8.2-6.2-14.4-14.4-14.4Z"/>
        <circle cx="350.4" cy="602.4" r="14.4" transform="translate(-129 96.6) rotate(-13.3)"/>
        <path d="M448.8,588.8h13.6c8.2,0,14.4-6.2,14.4-14.4s-6.2-14.4-14.4-14.4h-13.6v-13.6c0-8.2-6.2-14.4-14.4-14.4h-28c-8.2,0-14.4,6.2-14.4,14.4s6.2,14.4,14.4,14.4h13.6v27.2h-13.6c-8.2,0-14.4,6.2-14.4,14.4v28c0,8.2,6.2,14.4,14.4,14.4s14.4-6.2,14.4-14.4v-13.6h13.6c8.2,0,14.4-6.2,14.4-14.4v-13.6Z"/>
        <circle cx="350.4" cy="658.4" r="14.4" transform="translate(-141.9 98.1) rotate(-13.3)"/>
        <path d="M406.4,672h-28c-8.2,0-14.4,6.2-14.4,14.4v13.6h-13.6c-8.2,0-14.4,6.2-14.4,14.4s6.2,14.4,14.4,14.4h13.6v13.6c0,8.2,6.2,14.4,14.4,14.4s14.4-6.2,14.4-14.4v-41.6h13.6c8.2,0,14.4-6.2,14.4-14.4s-6.2-14.4-14.4-14.4Z"/>
        <circle cx="462.4" cy="714.4" r="14.4" transform="translate(-151.8 125.4) rotate(-13.3)"/>
        <circle cx="518.4" cy="714.4" r="14.4" transform="translate(-150.3 138.2) rotate(-13.3)"/>
        <path d="M322.4,728h-28c-8.2,0-14.4,6.2-14.4,14.4s6.2,14.4,14.4,14.4h28c8.2,0,14.4-6.2,14.4-14.4s-6.2-14.4-14.4-14.4Z"/>
        <path d="M119,252h71.4c33.6,0,61.6-28,61.6-61.6v-71.4c0-35-28-63-63-63h-71.4c-33.6,0-61.6,28-61.6,61.6v71.4c0,35,28,63,63,63ZM84,123.2c0-21,18.2-39.2,39.2-39.2h61.6c22.4,0,39.2,16.8,39.2,39.2v61.6c0,21-18.2,39.2-39.2,39.2h-61.6c-22.4,0-39.2-16.8-39.2-39.2v-61.6Z"/>
        <path d="M623,252h71.4c33.6,0,61.6-28,61.6-61.6v-71.4c0-35-28-63-63-63h-71.4c-33.6,0-61.6,28-61.6,61.6v71.4c0,35,28,63,63,63ZM588,123.2c0-21,18.2-39.2,39.2-39.2h61.6c22.4,0,39.2,16.8,39.2,39.2v61.6c0,21-18.2,39.2-39.2,39.2h-61.6c-22.4,0-39.2-16.8-39.2-39.2v-61.6Z"/>
        <path d="M189,560h-71.4c-33.6,0-61.6,28-61.6,61.6v71.4c0,35,28,63,63,63h71.4c33.6,0,61.6-28,61.6-61.6v-71.4c0-35-28-63-63-63ZM224,688.8c0,21-18.2,39.2-39.2,39.2h-61.6c-22.4,0-39.2-16.8-39.2-39.2v-61.6c0-21,18.2-39.2,39.2-39.2h61.6c22.4,0,39.2,16.8,39.2,39.2v61.6Z"/>
        <path d="M135.8,196h36.4c12.6,0,23.8-11.2,23.8-22.4v-37.8c0-14-9.8-23.8-22.4-23.8h-37.8c-12.6,0-23.8,11.2-23.8,23.8v36.4c0,14,9.8,23.8,23.8,23.8Z"/>
        <path d="M639.8,196h36.4c12.6,0,23.8-11.2,23.8-22.4v-37.8c0-14-9.8-23.8-22.4-23.8h-37.8c-12.6,0-23.8,11.2-23.8,23.8v36.4c0,14,9.8,23.8,23.8,23.8Z"/>
        <path d="M173.6,616h-37.8c-12.6,0-23.8,11.2-23.8,23.8v36.4c0,14,9.8,23.8,23.8,23.8h36.4c12.6,0,23.8-11.2,23.8-22.4v-37.8c0-14-9.8-23.8-22.4-23.8Z"/>
      </g>
    </g>
  </g>
</svg>