<?xml version="1.0" encoding="UTF-8"?>
<svg id="Vrstva_2" data-name="Vrstva 2" xmlns="http://www.w3.org/2000/svg" viewBox="0 0 168 168">
  <defs>
    <style>
      .cls-1 {
        fill: none;
      }

      .cls-1, .cls-2 {
        stroke-width: 0px;
      }

      .cls-2 {
        fill: #f2f2f2;
      }
    </style>
  </defs>
  <g id="Vrstva_1-2" data-name="Vrstva 1">
    <g>
      <rect class="cls-1" x="40.47" y="74.03" width="6.51" height="6.51"/>
      <polygon class="cls-1" points="107.39 27.05 100.88 27.05 100.68 27.05 94.17 27.05 94.17 33.56 100.68 33.56 100.88 33.56 107.39 33.56 107.39 27.05"/>
      <path class="cls-1" d="M80.54,87.46h-6.51v3.26c0,1.96-1.5,3.46-3.46,3.46h-3.26v6.51h6.51v-3.26c0-1.96,1.5-3.46,3.46-3.46h9.97v-6.51h-6.71Z"/>
      <path class="cls-1" d="M136.92,40.27h14.77c5.03,0,9.4-4.36,9.4-9.4v-14.77c0-5.37-4.03-9.4-9.4-9.4h-14.77c-5.03,0-9.4,4.36-9.4,9.4v14.77c0,5.37,4.03,9.4,9.4,9.4ZM134.24,19.13c0-3.02,2.68-5.71,5.71-5.71h9.06c3.02,0,5.37,2.35,5.37,5.71v9.06c0,2.68-2.68,5.37-5.71,5.37h-8.73c-3.36,0-5.71-2.35-5.71-5.71v-8.73Z"/>
      <path class="cls-1" d="M16.11,40.27h14.77c5.03,0,9.4-4.36,9.4-9.4v-14.77c0-5.37-4.03-9.4-9.4-9.4h-14.77c-5.03,0-9.4,4.36-9.4,9.4v14.77c0,5.37,4.03,9.4,9.4,9.4ZM13.42,19.13c0-3.02,2.68-5.71,5.71-5.71h9.06c3.02,0,5.37,2.35,5.37,5.71v9.06c0,2.68-2.68,5.37-5.71,5.37h-8.73c-3.36,0-5.71-2.35-5.71-5.71v-8.73Z"/>
      <path class="cls-1" d="M30.87,127.53h-14.77c-5.03,0-9.4,4.36-9.4,9.4v14.77c0,5.37,4.03,9.4,9.4,9.4h14.77c5.03,0,9.4-4.36,9.4-9.4v-14.77c0-5.37-4.03-9.4-9.4-9.4ZM33.56,149.01c0,2.68-2.68,5.37-5.71,5.37h-8.73c-3.36,0-5.71-2.35-5.71-5.71v-8.73c0-3.02,2.68-5.71,5.71-5.71h9.06c3.02,0,5.37,2.35,5.37,5.71v9.06Z"/>
      <path class="cls-1" d="M134.24,127.73v-13.42h-19.93v19.93h19.93v-6.51ZM124.27,127.73c-1.91,0-3.46-1.55-3.46-3.46s1.55-3.46,3.46-3.46,3.46,1.55,3.46,3.46-1.55,3.46-3.46,3.46Z"/>
      <path class="cls-1" d="M154.58,147.86v3.26c0,1.96-1.5,3.46-3.46,3.46h-3.26v6.51h13.22v-13.22h-6.51Z"/>
      <circle class="cls-2" cx="84" cy="43.73" r="3.46"/>
      <path class="cls-2" d="M57.15,53.9h3.26v3.26c0,1.96,1.5,3.46,3.46,3.46s3.46-1.5,3.46-3.46v-3.26h3.26c1.96,0,3.46-1.5,3.46-3.46v-13.42c0-1.96-1.5-3.46-3.46-3.46s-3.46,1.5-3.46,3.46v9.97h-6.51v-19.93h13.22v3.26c0,1.96,1.5,3.46,3.46,3.46s3.46-1.5,3.46-3.46v-3.26h6.51v9.97c0,1.96,1.5,3.46,3.46,3.46h3.26v13.22h-3.26c-1.96,0-3.46,1.5-3.46,3.46s1.5,3.46,3.46,3.46h3.26v3.26c0,1.96,1.5,3.46,3.46,3.46s3.46-1.5,3.46-3.46v-3.26h6.51v6.51h-3.26c-1.96,0-3.46,1.5-3.46,3.46v6.71c0,1.96,1.5,3.46,3.46,3.46s3.46-1.5,3.46-3.46v-3.26h6.51v9.97c0,1.96,1.5,3.46,3.46,3.46h6.71c1.96,0,3.46-1.5,3.46-3.46v-6.71c0-1.96-1.5-3.46-3.46-3.46h-3.26v-3.26c0-1.96-1.5-3.46-3.46-3.46h-3.26v-9.97c0-1.96-1.5-3.46-3.46-3.46h-9.97v-13.22h6.51v3.26c0,1.96,1.5,3.46,3.46,3.46s3.46-1.5,3.46-3.46v-20.14c0-1.96-1.5-3.46-3.46-3.46h-3.26v-6.51h3.26c1.96,0,3.46-1.5,3.46-3.46V3.46c0-1.96-1.5-3.46-3.46-3.46s-3.46,1.5-3.46,3.46v3.26h-6.51v-3.26c0-1.96-1.5-3.46-3.46-3.46s-3.46,1.5-3.46,3.46v3.26h-13.22v-3.26c0-1.96-1.5-3.46-3.46-3.46s-3.46,1.5-3.46,3.46v3.26h-6.51v-3.26c0-1.96-1.5-3.46-3.46-3.46s-3.46,1.5-3.46,3.46v6.71c0,1.96,1.5,3.46,3.46,3.46h30.1v6.51h-33.36v-3.26c0-1.96-1.5-3.46-3.46-3.46s-3.46,1.5-3.46,3.46v33.56c0,1.96,1.5,3.46,3.46,3.46ZM100.88,33.56h-6.71v-6.51h13.22v6.51h-6.51Z"/>
      <circle class="cls-2" cx="3.46" cy="57.15" r="3.46"/>
      <path class="cls-2" d="M43.73,53.7h-26.85c-1.96,0-3.46,1.5-3.46,3.46s1.5,3.46,3.46,3.46h3.26v3.26c0,1.96,1.5,3.46,3.46,3.46s3.46-1.5,3.46-3.46v-3.26h16.68c1.96,0,3.46-1.5,3.46-3.46s-1.5-3.46-3.46-3.46Z"/>
      <path class="cls-2" d="M77.29,53.7c-1.91,0-3.46,1.55-3.46,3.46s1.55,3.46,3.46,3.46,3.46-1.55,3.46-3.46-1.55-3.46-3.46-3.46Z"/>
      <path class="cls-2" d="M124.27,60.61h3.26v9.97c0,1.96,1.5,3.46,3.46,3.46s3.46-1.5,3.46-3.46v-9.97h16.68c1.96,0,3.46-1.5,3.46-3.46s-1.5-3.46-3.46-3.46h-26.85c-1.96,0-3.46,1.5-3.46,3.46s1.5,3.46,3.46,3.46Z"/>
      <path class="cls-2" d="M10.17,60.41c-1.91,0-3.46,1.55-3.46,3.46s1.55,3.46,3.46,3.46,3.46-1.55,3.46-3.46-1.55-3.46-3.46-3.46Z"/>
      <circle class="cls-2" cx="3.46" cy="70.58" r="3.46"/>
      <circle class="cls-2" cx="16.88" cy="70.58" r="3.46"/>
      <path class="cls-2" d="M46.98,67.12h-9.97c-1.96,0-3.46,1.5-3.46,3.46v16.68h-16.68c-1.96,0-3.46,1.5-3.46,3.46v6.71c0,1.96,1.5,3.46,3.46,3.46s3.46-1.5,3.46-3.46v-3.26h13.22v3.26c0,1.96,1.5,3.46,3.46,3.46h6.71c1.96,0,3.46-1.5,3.46-3.46s-1.5-3.46-3.46-3.46h-3.26v-6.51h6.51v3.26c0,1.96,1.5,3.46,3.46,3.46s3.46-1.5,3.46-3.46v-16.68h3.26c1.96,0,3.46-1.5,3.46-3.46v-6.71c0-1.96-1.5-3.46-3.46-3.46s-3.46,1.5-3.46,3.46v3.26h-6.71ZM40.47,80.54v-6.51h6.51v6.51h-6.51Z"/>
      <path class="cls-2" d="M84,74.03h6.71c1.96,0,3.46-1.5,3.46-3.46s-1.5-3.46-3.46-3.46h-6.71c-1.96,0-3.46,1.5-3.46,3.46s1.5,3.46,3.46,3.46Z"/>
      <circle class="cls-2" cx="144.41" cy="70.58" r="3.46"/>
      <path class="cls-2" d="M164.54,67.12h-3.26v-3.26c0-1.96-1.5-3.46-3.46-3.46s-3.46,1.5-3.46,3.46v6.71c0,1.96,1.5,3.46,3.46,3.46h3.26v6.51h-9.97c-1.96,0-3.46,1.5-3.46,3.46s1.5,3.46,3.46,3.46h3.26v9.97c0,1.96,1.5,3.46,3.46,3.46h3.26v3.26c0,1.96,1.5,3.46,3.46,3.46s3.46-1.5,3.46-3.46v-6.71c0-1.96-1.5-3.46-3.46-3.46h-3.26v-6.51h3.26c1.96,0,3.46-1.5,3.46-3.46v-13.42c0-1.96-1.5-3.46-3.46-3.46Z"/>
      <path class="cls-2" d="M10.17,80.74c1.91,0,3.46-1.55,3.46-3.46s-1.55-3.46-3.46-3.46-3.46,1.55-3.46,3.46,1.55,3.46,3.46,3.46Z"/>
      <path class="cls-2" d="M137.7,80.54c-1.91,0-3.46,1.55-3.46,3.46s1.55,3.46,3.46,3.46,3.46-1.55,3.46-3.46-1.55-3.46-3.46-3.46Z"/>
      <circle class="cls-2" cx="110.85" cy="90.71" r="3.46"/>
      <path class="cls-2" d="M30.3,100.68h-6.71c-1.96,0-3.46,1.5-3.46,3.46v6.71c0,1.96,1.5,3.46,3.46,3.46s3.46-1.5,3.46-3.46v-3.26h3.26c1.96,0,3.46-1.5,3.46-3.46s-1.5-3.46-3.46-3.46Z"/>
      <path class="cls-2" d="M3.46,114.3c1.96,0,3.46-1.5,3.46-3.46v-20.14c0-1.96-1.5-3.46-3.46-3.46s-3.46,1.5-3.46,3.46v20.14c0,1.96,1.5,3.46,3.46,3.46Z"/>
      <path class="cls-2" d="M50.44,107.39h-6.71c-1.96,0-3.46,1.5-3.46,3.46s1.5,3.46,3.46,3.46h6.71c1.96,0,3.46-1.5,3.46-3.46s-1.5-3.46-3.46-3.46Z"/>
      <path class="cls-2" d="M151.12,114.3c1.91,0,3.46-1.55,3.46-3.46s-1.55-3.46-3.46-3.46-3.46,1.55-3.46,3.46,1.55,3.46,3.46,3.46Z"/>
      <path class="cls-2" d="M63.86,114.1h-6.71c-1.96,0-3.46,1.5-3.46,3.46s1.5,3.46,3.46,3.46h6.71c1.96,0,3.46-1.5,3.46-3.46s-1.5-3.46-3.46-3.46Z"/>
      <path class="cls-2" d="M70.58,127.73c1.91,0,3.46-1.55,3.46-3.46s-1.55-3.46-3.46-3.46-3.46,1.55-3.46,3.46,1.55,3.46,3.46,3.46Z"/>
      <path class="cls-2" d="M124.27,120.82c-1.91,0-3.46,1.55-3.46,3.46s1.55,3.46,3.46,3.46,3.46-1.55,3.46-3.46-1.55-3.46-3.46-3.46Z"/>
      <path class="cls-2" d="M164.54,120.82h-13.42c-1.96,0-3.46,1.5-3.46,3.46s1.5,3.46,3.46,3.46h3.26v3.26c0,1.96,1.5,3.46,3.46,3.46h6.71c1.96,0,3.46-1.5,3.46-3.46v-6.71c0-1.96-1.5-3.46-3.46-3.46Z"/>
      <circle class="cls-2" cx="97.42" cy="130.98" r="3.46"/>
      <path class="cls-2" d="M90.71,134.24c-1.96,0-3.46,1.5-3.46,3.46v13.42c0,1.96,1.5,3.46,3.46,3.46h6.71c1.96,0,3.46-1.5,3.46-3.46s-1.5-3.46-3.46-3.46h-3.26v-9.97c0-1.96-1.5-3.46-3.46-3.46Z"/>
      <path class="cls-2" d="M164.54,140.95h-9.97v-3.26c0-1.96-1.5-3.46-3.46-3.46s-3.46,1.5-3.46,3.46v3.26h-6.51v-6.51h3.26c1.96,0,3.46-1.5,3.46-3.46s-1.5-3.46-3.46-3.46h-3.26v-6.51h3.26c1.96,0,3.46-1.5,3.46-3.46s-1.5-3.46-3.46-3.46h-3.26v-13.22h3.26c1.96,0,3.46-1.5,3.46-3.46v-6.71c0-1.96-1.5-3.46-3.46-3.46s-3.46,1.5-3.46,3.46v3.26h-6.51v-3.26c0-1.96-1.5-3.46-3.46-3.46s-3.46,1.5-3.46,3.46v16.68h-6.51v-9.97c0-1.96-1.5-3.46-3.46-3.46s-3.46,1.5-3.46,3.46v9.97h-6.51v-9.97c0-1.96-1.5-3.46-3.46-3.46s-3.46,1.5-3.46,3.46v3.26h-3.26c-1.96,0-3.46,1.5-3.46,3.46v3.26h-13.22v-6.51h9.97c1.96,0,3.46-1.5,3.46-3.46v-9.97h3.26c1.96,0,3.46-1.5,3.46-3.46s-1.5-3.46-3.46-3.46h-16.68v-3.26c0-1.96-1.5-3.46-3.46-3.46h-3.26v-3.26c0-1.96-1.5-3.46-3.46-3.46s-3.46,1.5-3.46,3.46v16.68h-3.26c-1.96,0-3.46,1.5-3.46,3.46v3.26h-3.26c-1.96,0-3.46,1.5-3.46,3.46s1.5,3.46,3.46,3.46h3.26v3.26c0,1.96,1.5,3.46,3.46,3.46h3.26v3.26c0,1.96,1.5,3.46,3.46,3.46h9.97v13.22h-3.26c-1.96,0-3.46,1.5-3.46,3.46v9.97h-6.51v-3.26c0-1.96-1.5-3.46-3.46-3.46h-3.26v-3.26c0-1.96-1.5-3.46-3.46-3.46s-3.46,1.5-3.46,3.46v20.14c0,1.96,1.5,3.46,3.46,3.46s3.46-1.5,3.46-3.46v-3.26h16.68c1.96,0,3.46-1.5,3.46-3.46v-9.97h3.26c1.96,0,3.46-1.5,3.46-3.46v-9.97h9.97c1.96,0,3.46-1.5,3.46-3.46v-3.26h6.51v19.93h-3.26c-1.96,0-3.46,1.5-3.46,3.46v6.71c0,1.96,1.5,3.46,3.46,3.46h3.26v6.51h-3.26c-1.96,0-3.46,1.5-3.46,3.46v3.26h-13.22v-3.26c0-1.96-1.5-3.46-3.46-3.46h-6.71c-1.96,0-3.46,1.5-3.46,3.46s1.5,3.46,3.46,3.46h3.26v3.26c0,1.96,1.5,3.46,3.46,3.46h20.14c1.96,0,3.46-1.5,3.46-3.46v-3.26h3.26c1.96,0,3.46-1.5,3.46-3.46v-3.26h3.26c1.96,0,3.46-1.5,3.46-3.46v-3.26h3.26c1.96,0,3.46-1.5,3.46-3.46v-3.26h6.51v3.26c0,1.96,1.5,3.46,3.46,3.46h3.26v6.51h-16.68c-1.96,0-3.46,1.5-3.46,3.46s1.5,3.46,3.46,3.46h3.26v3.26c0,1.96,1.5,3.46,3.46,3.46h33.56c1.96,0,3.46-1.5,3.46-3.46v-20.14c0-1.96-1.5-3.46-3.46-3.46ZM87.26,87.46v6.51h-9.97c-1.96,0-3.46,1.5-3.46,3.46v3.26h-6.51v-6.51h3.26c1.96,0,3.46-1.5,3.46-3.46v-3.26h13.22ZM127.73,134.24h-13.42v-19.93h19.93v19.93h-6.51ZM161.09,154.58v6.51h-13.22v-6.51h3.26c1.96,0,3.46-1.5,3.46-3.46v-3.26h6.51v6.71Z"/>
      <path class="cls-2" d="M70.58,161.09h-3.26v-3.26c0-1.96-1.5-3.46-3.46-3.46s-3.46,1.5-3.46,3.46v3.26h-3.26c-1.96,0-3.46,1.5-3.46,3.46s1.5,3.46,3.46,3.46h13.42c1.96,0,3.46-1.5,3.46-3.46s-1.5-3.46-3.46-3.46Z"/>
      <path class="cls-2" d="M117.56,161.09c-1.91,0-3.46,1.55-3.46,3.46s1.55,3.46,3.46,3.46,3.46-1.55,3.46-3.46-1.55-3.46-3.46-3.46Z"/>
      <path class="cls-2" d="M15.1,46.98h17.12c8.05,0,14.77-6.71,14.77-14.77V15.1c0-8.39-6.71-15.1-15.1-15.1H14.77C6.71,0,0,6.71,0,14.77v17.12c0,8.39,6.71,15.1,15.1,15.1ZM6.71,16.11c0-5.03,4.36-9.4,9.4-9.4h14.77c5.37,0,9.4,4.03,9.4,9.4v14.77c0,5.03-4.36,9.4-9.4,9.4h-14.77c-5.37,0-9.4-4.03-9.4-9.4v-14.77Z"/>
      <path class="cls-2" d="M135.92,46.98h17.12c8.05,0,14.77-6.71,14.77-14.77V15.1c0-8.39-6.71-15.1-15.1-15.1h-17.12c-8.05,0-14.77,6.71-14.77,14.77v17.12c0,8.39,6.71,15.1,15.1,15.1ZM127.53,16.11c0-5.03,4.36-9.4,9.4-9.4h14.77c5.37,0,9.4,4.03,9.4,9.4v14.77c0,5.03-4.36,9.4-9.4,9.4h-14.77c-5.37,0-9.4-4.03-9.4-9.4v-14.77Z"/>
      <path class="cls-2" d="M31.88,120.82H14.77c-8.05,0-14.77,6.71-14.77,14.77v17.12c0,8.39,6.71,15.1,15.1,15.1h17.12c8.05,0,14.77-6.71,14.77-14.77v-17.12c0-8.39-6.71-15.1-15.1-15.1ZM40.27,151.69c0,5.03-4.36,9.4-9.4,9.4h-14.77c-5.37,0-9.4-4.03-9.4-9.4v-14.77c0-5.03,4.36-9.4,9.4-9.4h14.77c5.37,0,9.4,4.03,9.4,9.4v14.77Z"/>
      <path class="cls-2" d="M19.13,33.56h8.73c3.02,0,5.71-2.68,5.71-5.37v-9.06c0-3.36-2.35-5.71-5.37-5.71h-9.06c-3.02,0-5.71,2.68-5.71,5.71v8.73c0,3.36,2.35,5.71,5.71,5.71Z"/>
      <path class="cls-2" d="M139.94,33.56h8.73c3.02,0,5.71-2.68,5.71-5.37v-9.06c0-3.36-2.35-5.71-5.37-5.71h-9.06c-3.02,0-5.71,2.68-5.71,5.71v8.73c0,3.36,2.35,5.71,5.71,5.71Z"/>
      <path class="cls-2" d="M28.19,134.24h-9.06c-3.02,0-5.71,2.68-5.71,5.71v8.73c0,3.36,2.35,5.71,5.71,5.71h8.73c3.02,0,5.71-2.68,5.71-5.37v-9.06c0-3.36-2.35-5.71-5.37-5.71Z"/>
    </g>
  </g>
</svg>