<?xml version="1.0" encoding="UTF-8"?>
<svg id="Vrstva_2" data-name="Vrstva 2" xmlns="http://www.w3.org/2000/svg" viewBox="0 0 29.6 29.75">
  <defs>
    <style>
      .cls-1 {
        fill: #E31837;
        stroke-width: 0px;
      }
    </style>
  </defs>
  <g id="Vrstva_1-2" data-name="Vrstva 1">
    <path class="cls-1" d="M28.29,1.04c-1.34-1.21-3.12-1.38-4.59-.37-.53.36-1,.83-1.46,1.29-2.01,1.98-3.99,3.99-6.01,5.97-1.3,1.27-1.5,1.26-2.81-.04-1.96-1.93-3.89-3.89-5.83-5.84-.67-.67-1.36-1.29-2.23-1.7-.9-.41-1.8-.47-2.74-.12C.28,1.11-.65,3.5.48,5.73c.33.66.84,1.17,1.35,1.69,1.74,1.74,3.47,3.49,5.21,5.23.46.46.93.92,1.34,1.42.49.58.5.99.04,1.55-.36.45-.77.86-1.18,1.27-1.94,1.95-3.88,3.9-5.85,5.82-.88.86-1.4,1.84-1.3,3.02-.07,1.7.7,2.83,2.11,3.55,1.47.75,2.81.43,4.04-.56.45-.36.85-.79,1.26-1.2,1.75-1.73,3.49-3.47,5.23-5.21.41-.41.84-.8,1.28-1.17.44-.37.93-.39,1.38,0,.44.37.86.77,1.27,1.18,1.84,1.84,3.68,3.69,5.52,5.53.41.41.82.83,1.29,1.16,1.51,1.05,3.22.96,4.62-.18,1.4-1.14,1.8-3.05,1.02-4.72-.38-.8-.97-1.43-1.58-2.05-1.89-1.9-3.79-3.79-5.67-5.7-1.49-1.52-1.5-1.63-.02-3.12,1.93-1.95,3.9-3.88,5.84-5.83.51-.51,1.03-1.04,1.4-1.65.95-1.55.59-3.49-.78-4.73Z"/>
  </g>
</svg>